<svg width="32" height="32" viewBox="0 0 32 32" fill="none" xmlns="http://www.w3.org/2000/svg">
<path d="M6.66667 29.3333C5.93333 29.3333 5.30556 29.0722 4.78333 28.55C4.26111 28.0277 4 27.4 4 26.6666V7.99996C4 7.26663 4.26111 6.63885 4.78333 6.11663C5.30556 5.5944 5.93333 5.33329 6.66667 5.33329H8V2.66663H10.6667V5.33329H21.3333V2.66663H24V5.33329H25.3333C26.0667 5.33329 26.6944 5.5944 27.2167 6.11663C27.7389 6.63885 28 7.26663 28 7.99996V26.6666C28 27.4 27.7389 28.0277 27.2167 28.55C26.6944 29.0722 26.0667 29.3333 25.3333 29.3333H6.66667ZM6.66667 26.6666H25.3333V13.3333H6.66667V26.6666ZM6.66667 10.6666H25.3333V7.99996H6.66667V10.6666ZM16 18.6666C15.6222 18.6666 15.3056 18.5388 15.05 18.2833C14.7944 18.0277 14.6667 17.7111 14.6667 17.3333C14.6667 16.9555 14.7944 16.6388 15.05 16.3833C15.3056 16.1277 15.6222 16 16 16C16.3778 16 16.6944 16.1277 16.95 16.3833C17.2056 16.6388 17.3333 16.9555 17.3333 17.3333C17.3333 17.7111 17.2056 18.0277 16.95 18.2833C16.6944 18.5388 16.3778 18.6666 16 18.6666ZM10.6667 18.6666C10.2889 18.6666 9.97222 18.5388 9.71667 18.2833C9.46111 18.0277 9.33333 17.7111 9.33333 17.3333C9.33333 16.9555 9.46111 16.6388 9.71667 16.3833C9.97222 16.1277 10.2889 16 10.6667 16C11.0444 16 11.3611 16.1277 11.6167 16.3833C11.8722 16.6388 12 16.9555 12 17.3333C12 17.7111 11.8722 18.0277 11.6167 18.2833C11.3611 18.5388 11.0444 18.6666 10.6667 18.6666ZM21.3333 18.6666C20.9556 18.6666 20.6389 18.5388 20.3833 18.2833C20.1278 18.0277 20 17.7111 20 17.3333C20 16.9555 20.1278 16.6388 20.3833 16.3833C20.6389 16.1277 20.9556 16 21.3333 16C21.7111 16 22.0278 16.1277 22.2833 16.3833C22.5389 16.6388 22.6667 16.9555 22.6667 17.3333C22.6667 17.7111 22.5389 18.0277 22.2833 18.2833C22.0278 18.5388 21.7111 18.6666 21.3333 18.6666ZM16 24C15.6222 24 15.3056 23.8722 15.05 23.6166C14.7944 23.3611 14.6667 23.0444 14.6667 22.6666C14.6667 22.2888 14.7944 21.9722 15.05 21.7166C15.3056 21.4611 15.6222 21.3333 16 21.3333C16.3778 21.3333 16.6944 21.4611 16.95 21.7166C17.2056 21.9722 17.3333 22.2888 17.3333 22.6666C17.3333 23.0444 17.2056 23.3611 16.95 23.6166C16.6944 23.8722 16.3778 24 16 24ZM10.6667 24C10.2889 24 9.97222 23.8722 9.71667 23.6166C9.46111 23.3611 9.33333 23.0444 9.33333 22.6666C9.33333 22.2888 9.46111 21.9722 9.71667 21.7166C9.97222 21.4611 10.2889 21.3333 10.6667 21.3333C11.0444 21.3333 11.3611 21.4611 11.6167 21.7166C11.8722 21.9722 12 22.2888 12 22.6666C12 23.0444 11.8722 23.3611 11.6167 23.6166C11.3611 23.8722 11.0444 24 10.6667 24ZM21.3333 24C20.9556 24 20.6389 23.8722 20.3833 23.6166C20.1278 23.3611 20 23.0444 20 22.6666C20 22.2888 20.1278 21.9722 20.3833 21.7166C20.6389 21.4611 20.9556 21.3333 21.3333 21.3333C21.7111 21.3333 22.0278 21.4611 22.2833 21.7166C22.5389 21.9722 22.6667 22.2888 22.6667 22.6666C22.6667 23.0444 22.5389 23.3611 22.2833 23.6166C22.0278 23.8722 21.7111 24 21.3333 24Z" fill="white"/>
</svg>
