<svg width="28" height="28" viewBox="0 0 28 28" fill="none" xmlns="http://www.w3.org/2000/svg">
<path d="M8.16797 25.6666C7.5263 25.6666 6.977 25.4382 6.52005 24.9812C6.06311 24.5243 5.83464 23.975 5.83464 23.3333C5.83464 22.6916 6.06311 22.1423 6.52005 21.6854C6.977 21.2285 7.5263 21 8.16797 21C8.80964 21 9.35894 21.2285 9.81589 21.6854C10.2728 22.1423 10.5013 22.6916 10.5013 23.3333C10.5013 23.975 10.2728 24.5243 9.81589 24.9812C9.35894 25.4382 8.80964 25.6666 8.16797 25.6666ZM19.8346 25.6666C19.193 25.6666 18.6437 25.4382 18.1867 24.9812C17.7298 24.5243 17.5013 23.975 17.5013 23.3333C17.5013 22.6916 17.7298 22.1423 18.1867 21.6854C18.6437 21.2285 19.193 21 19.8346 21C20.4763 21 21.0256 21.2285 21.4826 21.6854C21.9395 22.1423 22.168 22.6916 22.168 23.3333C22.168 23.975 21.9395 24.5243 21.4826 24.9812C21.0256 25.4382 20.4763 25.6666 19.8346 25.6666ZM7.1763 6.99998L9.9763 12.8333H18.143L21.3513 6.99998H7.1763ZM6.06797 4.66665H23.2763C23.7235 4.66665 24.0638 4.86595 24.2971 5.26456C24.5305 5.66317 24.5402 6.06665 24.3263 6.47498L20.1846 13.9416C19.9707 14.3305 19.6839 14.6319 19.3242 14.8458C18.9645 15.0597 18.5707 15.1666 18.143 15.1666H9.4513L8.16797 17.5H22.168V19.8333H8.16797C7.29297 19.8333 6.63186 19.4493 6.18464 18.6812C5.73741 17.9132 5.71797 17.15 6.1263 16.3916L7.7013 13.5333L3.5013 4.66665H1.16797V2.33331H4.95964L6.06797 4.66665Z" fill="white"/>
</svg>
