<svg width="32" height="32" viewBox="0 0 32 32" fill="none" xmlns="http://www.w3.org/2000/svg">
<path fill-rule="evenodd" clip-rule="evenodd" d="M4.80099 16C4.80046 14.2117 5.22815 12.4493 6.04829 10.8602C6.86843 9.27102 8.05717 7.90137 9.51509 6.86578C10.973 5.83018 12.6577 5.15875 14.4283 4.90763C16.1988 4.65652 18.0038 4.83303 19.6922 5.4224C20.093 5.56201 20.5328 5.53669 20.9149 5.352C21.2971 5.16732 21.5902 4.8384 21.7298 4.4376C21.8694 4.03681 21.8441 3.59697 21.6594 3.21484C21.4747 2.83272 21.1458 2.53961 20.745 2.4C17.7967 1.37143 14.594 1.32904 11.6196 2.27924C8.64517 3.22943 6.06018 5.1207 4.25426 7.66801C2.44833 10.2153 1.51933 13.2806 1.60728 16.4019C1.69522 19.5232 2.79535 22.5313 4.74184 24.9729C6.68833 27.4145 9.37571 29.1572 12.3989 29.9384C15.4221 30.7196 18.6174 30.4969 21.503 29.304C24.3887 28.111 26.8084 26.0124 28.3974 23.3245C29.9865 20.6365 30.6588 17.5049 30.313 14.4016C30.2899 14.1927 30.2259 13.9905 30.1246 13.8064C30.0233 13.6223 29.8867 13.4599 29.7227 13.3286C29.5587 13.1972 29.3704 13.0995 29.1686 13.0409C28.9668 12.9823 28.7554 12.9641 28.5466 12.9872C28.3377 13.0103 28.1355 13.0743 27.9514 13.1756C27.7673 13.2769 27.6049 13.4134 27.4736 13.5775C27.3422 13.7415 27.2445 13.9298 27.1859 14.1316C27.1273 14.3334 27.1091 14.5447 27.1322 14.7536C27.3007 16.267 27.1588 17.7989 26.7153 19.2557C26.2717 20.7124 25.5357 22.0634 24.5523 23.2261C23.5688 24.3887 22.3587 25.3386 20.9957 26.0177C19.6327 26.6968 18.1456 27.0908 16.6251 27.1757C15.1047 27.2605 13.583 27.0345 12.1529 26.5113C10.7228 25.9881 9.41443 25.1787 8.30773 24.1327C7.20104 23.0867 6.31928 21.8261 5.71633 20.4277C5.11339 19.0294 4.80193 17.5228 4.80099 16ZM28.401 7.4592C28.6819 7.14094 28.8249 6.72412 28.7985 6.30044C28.7721 5.87676 28.5784 5.48092 28.2602 5.2C27.9419 4.91908 27.5251 4.7761 27.1014 4.80251C26.6777 4.82891 26.2819 5.02254 26.001 5.3408L15.705 16.9888L10.6122 12.84C10.4493 12.7072 10.2619 12.6078 10.0607 12.5474C9.85943 12.4871 9.64825 12.4669 9.4392 12.4882C9.01702 12.5311 8.62918 12.7399 8.36099 13.0688C8.2282 13.2316 8.12878 13.419 8.06841 13.6203C8.00804 13.8216 7.9879 14.0327 8.00915 14.2418C8.05206 14.664 8.26092 15.0518 8.58979 15.32L14.8762 20.44C15.1965 20.7006 15.605 20.8272 16.0165 20.7936C16.428 20.7599 16.8106 20.5684 17.0842 20.2592L28.401 7.4592Z" fill="#8CC63F"/>
</svg>
