<svg width="24" height="24" viewBox="0 0 24 24" fill="none" xmlns="http://www.w3.org/2000/svg">
<g clip-path="url(#clip0_98_1895)">
<path d="M12 0C18.6274 0 24 5.37258 24 12C24 18.6274 18.6274 24 12 24C5.37258 24 0 18.6274 0 12C0 5.37258 5.37258 0 12 0ZM12 1.5C6.20101 1.5 1.5 6.20101 1.5 12C1.5 17.799 6.20101 22.5 12 22.5C17.799 22.5 22.5 17.799 22.5 12C22.5 6.20101 17.799 1.5 12 1.5ZM16.2959 8.25L17.3566 9.31066L10.9926 15.6746L6.75 11.432L7.81066 10.3713L10.9921 13.5528L16.2959 8.25Z" fill="#8CC63F"/>
</g>
<defs>
<clipPath id="clip0_98_1895">
<rect width="24" height="24" fill="white"/>
</clipPath>
</defs>
</svg>
