<svg width="28" height="28" viewBox="0 0 28 28" fill="none" xmlns="http://www.w3.org/2000/svg">
<path d="M6.8237 19.95C7.81536 19.1916 8.9237 18.5937 10.1487 18.1562C11.3737 17.7187 12.657 17.5 13.9987 17.5C15.3404 17.5 16.6237 17.7187 17.8487 18.1562C19.0737 18.5937 20.182 19.1916 21.1737 19.95C21.8543 19.1528 22.3841 18.2486 22.7633 17.2375C23.1424 16.2264 23.332 15.1472 23.332 14C23.332 11.4139 22.423 9.21179 20.6049 7.39373C18.7869 5.57567 16.5848 4.66665 13.9987 4.66665C11.4126 4.66665 9.2105 5.57567 7.39245 7.39373C5.57439 9.21179 4.66536 11.4139 4.66536 14C4.66536 15.1472 4.85495 16.2264 5.23411 17.2375C5.61328 18.2486 6.14314 19.1528 6.8237 19.95ZM13.9987 15.1666C12.8515 15.1666 11.8841 14.7729 11.0966 13.9854C10.3091 13.1979 9.91536 12.2305 9.91536 11.0833C9.91536 9.93609 10.3091 8.96873 11.0966 8.18123C11.8841 7.39373 12.8515 6.99998 13.9987 6.99998C15.1459 6.99998 16.1133 7.39373 16.9008 8.18123C17.6883 8.96873 18.082 9.93609 18.082 11.0833C18.082 12.2305 17.6883 13.1979 16.9008 13.9854C16.1133 14.7729 15.1459 15.1666 13.9987 15.1666ZM13.9987 25.6666C12.3848 25.6666 10.8681 25.3604 9.4487 24.7479C8.02925 24.1354 6.79453 23.3041 5.74453 22.2541C4.69453 21.2041 3.86328 19.9694 3.25078 18.55C2.63828 17.1305 2.33203 15.6139 2.33203 14C2.33203 12.3861 2.63828 10.8694 3.25078 9.44998C3.86328 8.03054 4.69453 6.79581 5.74453 5.74581C6.79453 4.69581 8.02925 3.86456 9.4487 3.25206C10.8681 2.63956 12.3848 2.33331 13.9987 2.33331C15.6126 2.33331 17.1293 2.63956 18.5487 3.25206C19.9681 3.86456 21.2029 4.69581 22.2529 5.74581C23.3029 6.79581 24.1341 8.03054 24.7466 9.44998C25.3591 10.8694 25.6654 12.3861 25.6654 14C25.6654 15.6139 25.3591 17.1305 24.7466 18.55C24.1341 19.9694 23.3029 21.2041 22.2529 22.2541C21.2029 23.3041 19.9681 24.1354 18.5487 24.7479C17.1293 25.3604 15.6126 25.6666 13.9987 25.6666ZM13.9987 23.3333C15.0293 23.3333 16.0015 23.1826 16.9154 22.8812C17.8293 22.5798 18.6654 22.1472 19.4237 21.5833C18.6654 21.0194 17.8293 20.5868 16.9154 20.2854C16.0015 19.984 15.0293 19.8333 13.9987 19.8333C12.9681 19.8333 11.9959 19.984 11.082 20.2854C10.1681 20.5868 9.33203 21.0194 8.5737 21.5833C9.33203 22.1472 10.1681 22.5798 11.082 22.8812C11.9959 23.1826 12.9681 23.3333 13.9987 23.3333ZM13.9987 12.8333C14.5043 12.8333 14.9223 12.668 15.2529 12.3375C15.5834 12.0069 15.7487 11.5889 15.7487 11.0833C15.7487 10.5778 15.5834 10.1597 15.2529 9.82915C14.9223 9.49859 14.5043 9.33331 13.9987 9.33331C13.4931 9.33331 13.0751 9.49859 12.7445 9.82915C12.414 10.1597 12.2487 10.5778 12.2487 11.0833C12.2487 11.5889 12.414 12.0069 12.7445 12.3375C13.0751 12.668 13.4931 12.8333 13.9987 12.8333Z" fill="white"/>
</svg>
