<svg width="32" height="32" viewBox="0 0 32 32" fill="none" xmlns="http://www.w3.org/2000/svg">
<path d="M14.6654 28L10.432 24.2C8.83203 22.7556 7.45981 21.4667 6.31536 20.3333C5.17092 19.2 4.22648 18.1333 3.48203 17.1333C2.73759 16.1333 2.19314 15.1667 1.8487 14.2333C1.50425 13.3 1.33203 12.3222 1.33203 11.3C1.33203 9.21111 2.03203 7.47222 3.43203 6.08333C4.83203 4.69444 6.57648 4 8.66536 4C9.82092 4 10.9209 4.24444 11.9654 4.73333C13.0098 5.22222 13.9098 5.91111 14.6654 6.8C15.4209 5.91111 16.3209 5.22222 17.3654 4.73333C18.4098 4.24444 19.5098 4 20.6654 4C22.4654 4 23.9765 4.50556 25.1987 5.51667C26.4209 6.52778 27.2543 7.8 27.6987 9.33333H24.8654C24.4654 8.44444 23.8765 7.77778 23.0987 7.33333C22.3209 6.88889 21.5098 6.66667 20.6654 6.66667C19.532 6.66667 18.5543 6.97222 17.732 7.58333C16.9098 8.19444 16.1431 9 15.432 10H13.8987C13.2098 9 12.4265 8.19444 11.5487 7.58333C10.6709 6.97222 9.70981 6.66667 8.66536 6.66667C7.3987 6.66667 6.30425 7.10556 5.38203 7.98333C4.45981 8.86111 3.9987 9.96667 3.9987 11.3C3.9987 12.0333 4.15425 12.7778 4.46536 13.5333C4.77648 14.2889 5.33203 15.1611 6.13203 16.15C6.93203 17.1389 8.02092 18.2944 9.3987 19.6167C10.7765 20.9389 12.532 22.5333 14.6654 24.4C15.2431 23.8889 15.9209 23.3 16.6987 22.6333C17.4765 21.9667 18.0987 21.4111 18.5654 20.9667L18.8654 21.2667L19.5154 21.9167L20.1654 22.5667L20.4654 22.8667C19.9765 23.3111 19.3543 23.8611 18.5987 24.5167C17.8431 25.1722 17.1765 25.7556 16.5987 26.2667L14.6654 28ZM23.9987 22.6667V18.6667H19.9987V16H23.9987V12H26.6654V16H30.6654V18.6667H26.6654V22.6667H23.9987Z" fill="white"/>
</svg>
