<svg width="140" height="140" viewBox="0 0 140 140" fill="none" xmlns="http://www.w3.org/2000/svg">
<path d="M70.0012 21.4831C75.1558 21.4831 79.3344 17.3045 79.3344 12.1499C79.3344 6.99529 75.1558 2.81665 70.0012 2.81665C64.8466 2.81665 60.668 6.99529 60.668 12.1499C60.668 17.3045 64.8466 21.4831 70.0012 21.4831Z" fill="#FDD042"/>
<path d="M72.3344 19.1499C67.1799 19.1499 63.0012 14.9712 63.0012 9.81667C63.0012 7.83534 63.6205 5.99975 64.673 4.48846C62.2531 6.17475 60.668 8.97639 60.668 12.1499C60.668 17.3045 64.8466 21.4832 70.0012 21.4832C73.1745 21.4832 75.9764 19.898 77.6627 17.4781C76.1516 18.5308 74.3158 19.1499 72.3344 19.1499Z" fill="#F2C127"/>
<path d="M74.6653 12.1499C75.9539 12.1499 76.9985 11.1053 76.9985 9.8167C76.9985 8.52809 75.9539 7.48346 74.6653 7.48346C73.3767 7.48346 72.332 8.52809 72.332 9.8167C72.332 11.1053 73.3767 12.1499 74.6653 12.1499Z" fill="#FDE5A2"/>
<path d="M116.199 42.9524C103.859 30.6124 87.4525 23.8167 70.0012 23.8167C52.5499 23.8167 36.1434 30.6124 23.8037 42.9524C11.464 55.2923 4.66797 71.6988 4.66797 89.1499C4.66797 90.4386 5.71277 91.4831 7.00121 91.4831H133.001C134.29 91.4831 135.334 90.4383 135.334 89.1499C135.334 71.6988 128.539 55.292 116.199 42.9524Z" fill="#E5563C"/>
<path d="M14.0012 89.1499C14.0012 71.6988 20.797 55.292 33.1369 42.9524C44.37 31.7187 58.9743 25.0818 74.668 23.9818C73.1222 23.8733 71.5661 23.8167 70.0012 23.8167C52.5499 23.8167 36.1434 30.6124 23.8037 42.9524C11.464 55.2923 4.66797 71.6988 4.66797 89.1499C4.66797 90.4386 5.71277 91.4831 7.00121 91.4831H16.3345C15.046 91.4834 14.0012 90.4386 14.0012 89.1499Z" fill="#CF442B"/>
<path d="M115.793 79.8175C120.142 79.8175 123.668 76.2917 123.668 71.9425C123.668 67.5933 120.142 64.0675 115.793 64.0675C111.444 64.0675 107.918 67.5933 107.918 71.9425C107.918 76.2917 111.444 79.8175 115.793 79.8175Z" fill="#F58F6C"/>
<path d="M137.667 89.1499H2.33324C1.04453 89.1499 0 90.1947 0 91.4831V96.1499C0 97.4386 1.0448 98.4831 2.33324 98.4831H137.666C138.955 98.4831 140 97.4383 140 96.1499V91.4831C140 90.1947 138.955 89.1499 137.667 89.1499Z" fill="#88898E"/>
<path d="M137.667 93.8167H2.33324C1.04453 93.8167 0 92.7719 0 91.4835V96.1502C0 97.4389 1.0448 98.4835 2.33324 98.4835H137.666C138.955 98.4835 140 97.4387 140 96.1502V91.4835C140 92.7719 138.955 93.8167 137.667 93.8167Z" fill="#74757B"/>
<path d="M65.3345 68.1497H56.0012C54.7125 68.1497 53.668 67.1049 53.668 65.8165V56.4833C53.668 55.1945 54.7128 54.15 56.0012 54.15H63.0012V49.4833H56.0012C54.7125 49.4833 53.668 48.4385 53.668 47.15C53.668 45.8613 54.7128 44.8168 56.0012 44.8168H65.3345C66.6232 44.8168 67.6677 45.8616 67.6677 47.15V56.4833C67.6677 57.772 66.6229 58.8165 65.3345 58.8165H58.3345V63.4833H65.3345C66.6232 63.4833 67.6677 64.5281 67.6677 65.8165C67.668 67.1049 66.6232 68.1497 65.3345 68.1497Z" fill="white"/>
<path d="M84 61.1499H72.3332C71.0445 61.1499 70 60.1051 70 58.8166V47.1499C70 45.8612 71.0448 44.8167 72.3332 44.8167C73.622 44.8167 74.6665 45.8615 74.6665 47.1499V56.4831H84C85.2887 56.4831 86.3332 57.5279 86.3332 58.8164C86.3332 60.1051 85.2887 61.1499 84 61.1499Z" fill="white"/>
<path d="M79.3332 68.1499C78.0445 68.1499 77 67.1051 77 65.8166V51.8166C77 50.5279 78.0448 49.4834 79.3332 49.4834C80.622 49.4834 81.6665 50.5282 81.6665 51.8166V65.8166C81.6668 67.1051 80.622 68.1499 79.3332 68.1499Z" fill="white"/>
<path d="M90.86 37.8167H93.3332C94.622 37.8167 95.6665 36.7719 95.6665 35.4835C95.6665 34.1948 94.6217 33.1502 93.3332 33.1502H84C82.7113 33.1502 81.6668 34.195 81.6668 35.4835V43.6489C81.6668 44.9376 82.7116 45.9821 84 45.9821C85.2884 45.9821 86.3332 44.9373 86.3332 43.6489V37.8167H86.5862C86.1561 38.6696 86.2769 39.7346 86.9703 40.4693C91.0735 44.8153 93.3332 50.5026 93.3332 56.4832C93.3332 69.3492 82.8658 79.8164 70 79.8164C57.1342 79.8164 46.6668 69.349 46.6668 56.4832C46.6668 43.6174 57.1342 33.1499 70 33.1499C71.2887 33.1499 72.3332 32.1051 72.3332 30.8167C72.3332 29.5283 71.2884 28.4835 70 28.4835C54.5606 28.4835 42 41.0441 42 56.4835C42 71.9228 54.5606 84.4835 70 84.4835C85.4394 84.4835 98 71.9228 98 56.4835C98 49.5548 95.4661 42.9587 90.86 37.8167Z" fill="#B83C26"/>
<path d="M65.0258 133.2H93.7578C94.3766 133.2 94.9702 132.954 95.4077 132.517L112.966 114.958C114.842 113.083 114.787 110.009 112.803 108.203C110.945 106.511 108.051 106.675 106.274 108.452L94.7244 120.001L73.2754 115.051L66.676 108.452C59.3861 101.162 47.5671 101.162 40.2772 108.452L27.0779 121.651C26.1668 122.562 26.1668 124.04 27.0779 124.951L38.6273 136.5C39.5384 137.411 41.0158 137.411 41.9271 136.5L48.5266 129.901L65.0258 133.2Z" fill="#FDE5A2"/>
<path d="M90.9139 114.857L73.3398 114.989V124.322L90.9842 124.19C93.5614 124.17 95.6351 122.065 95.6157 119.488C95.596 116.911 93.4911 114.837 90.9139 114.857Z" fill="#FDE5A2"/>
<path d="M73.3398 120.482V124.322L90.9842 124.19C93.2204 124.173 95.0751 122.585 95.5148 120.482H73.3398V120.482Z" fill="#FDD042"/>
<path d="M112.963 108.363L93.0748 128.251H63.3765L46.5339 123.657C45.7259 123.437 44.8621 123.666 44.2701 124.258L35.3281 133.2L38.6277 136.5C39.5388 137.411 41.0164 137.411 41.9275 136.5L48.527 129.901L65.0262 133.2H93.7582C94.377 133.2 94.9706 132.955 95.4081 132.517L112.967 114.958C114.789 113.136 114.784 110.185 112.963 108.363Z" fill="#FDD042"/>
</svg>
