<svg width="60" height="60" viewBox="0 0 60 60" fill="none" xmlns="http://www.w3.org/2000/svg">
<path d="M51.865 8.32123C50.8887 7.34491 49.3057 7.34491 48.3295 8.32123L30.0935 26.5572L11.8576 8.32123C10.8813 7.34491 9.29839 7.34491 8.32209 8.32123C7.34576 9.29753 7.34576 10.8805 8.32209 11.8568L26.558 30.0927L8.32214 48.3285C7.34581 49.305 7.34581 50.8877 8.32214 51.8642C9.29844 52.8405 10.8814 52.8405 11.8577 51.8642L30.0935 33.6282L48.3295 51.8642C49.3057 52.8405 50.8887 52.8405 51.865 51.8642C52.8412 50.8877 52.8412 49.305 51.865 48.3287L33.629 30.0927L51.865 11.8568C52.8412 10.8805 52.8412 9.29753 51.865 8.32123Z" fill="white"/>
</svg>
