<svg width="140" height="140" viewBox="0 0 140 140" fill="none" xmlns="http://www.w3.org/2000/svg">
<path d="M20.2075 92.9034C19.6736 94.7841 16.0034 96.5983 15.8032 98.3471C15.0691 105.111 43.0629 119.198 68.654 119.198C94.2454 119.198 122.206 105.209 121.538 98.5781C121.372 96.7633 117.669 94.8827 117.101 92.9361L20.2075 92.9034Z" fill="url(#paint0_linear_98_1418)"/>
<path d="M21.1081 99.6316C25.2121 101.149 34.5545 107.055 68.6208 107.055C102.687 107.055 112.03 101.116 116.133 99.6316C125.042 96.3649 123.44 80.0666 116.133 81.3867C110.995 82.3101 83.7356 87.8203 68.6541 87.8203C53.5729 87.8203 22.0424 81.3867 22.0424 81.3867C13.3674 81.0238 12.1328 96.0021 21.1749 99.6316H21.1081Z" fill="url(#paint1_radial_98_1418)"/>
<path d="M21.1746 81.3563C21.1746 81.3563 32.8859 83.6657 45.4981 85.5464C59.7787 91.6498 62.0473 102.241 62.0473 102.241C41.6611 89.6706 29.9831 89.9675 27.9145 89.2745C21.7084 87.1961 12.5996 94.9824 32.1852 101.317C42.9624 104.781 57.8767 105.342 68.6536 105.342L68.6203 107.025C34.5542 107.025 25.2118 101.119 21.1079 99.6012H21.1746C17.104 97.9516 14.9352 94.0257 14.6016 90.2312C14.8018 85.5464 17.0373 81.389 21.1746 81.3563Z" fill="url(#paint2_linear_98_1418)"/>
<path d="M17.4023 96.8631C22.2737 98.7105 33.251 104.815 68.3517 104.815C105.421 104.815 115.564 98.084 120.068 96.5662H120.102C119.134 97.9189 117.833 98.9747 116.131 99.6012C112.027 101.119 102.685 107.025 68.6183 107.025C34.5523 107.025 25.2099 101.119 21.1059 99.6012H21.1727C19.6045 99.0074 18.3699 98.0508 17.4023 96.8631Z" fill="url(#paint3_linear_98_1418)"/>
<path d="M68.6528 105.341C79.4298 105.341 94.4775 105.11 105.121 101.315C120.736 95.7722 113.63 87.1943 111.461 86.8642C109.292 86.5346 104.454 87.689 97.1136 91.4836C89.7729 95.2776 87.2704 91.9123 80.0972 93.2318C72.9233 94.5519 68.7531 98.6761 63.7148 102.14L71.3886 87.7222C71.6225 87.7222 71.8558 87.689 72.0892 87.689C72.0892 87.689 72.0892 87.689 72.123 87.689C72.3563 87.689 72.5897 87.6563 72.8236 87.6563H72.8568C73.0902 87.6563 73.3241 87.6231 73.5907 87.6231H73.6239C73.8578 87.6231 74.1244 87.5904 74.3583 87.5904C87.5708 86.6997 105.455 83.3012 113.162 81.8825C113.196 81.8825 113.229 81.8825 113.263 81.8825C113.396 81.8492 113.529 81.8492 113.63 81.8166C113.663 81.8166 113.696 81.8166 113.696 81.8166C113.796 81.7833 113.93 81.7833 114.03 81.7507C114.064 81.7507 114.097 81.7507 114.13 81.7174C114.23 81.6847 114.33 81.6847 114.43 81.6515C114.464 81.6515 114.53 81.6515 114.564 81.6188C114.631 81.6188 114.731 81.5856 114.797 81.5856C114.831 81.5856 114.898 81.5523 114.931 81.5523C114.997 81.5523 115.065 81.5197 115.131 81.5197C115.164 81.5197 115.231 81.4864 115.265 81.4864C115.331 81.4864 115.364 81.4537 115.431 81.4537C115.465 81.4537 115.531 81.4205 115.565 81.4205C115.632 81.4205 115.698 81.3878 115.765 81.3878C115.798 81.3878 115.832 81.3878 115.865 81.3878C115.965 81.3878 116.032 81.3546 116.132 81.3546C120.203 80.6948 121.804 84.819 122.071 89.6688C121.838 93.7597 120.303 98.1149 116.132 99.6327C112.028 101.151 102.686 107.056 68.6195 107.056" fill="url(#paint4_linear_98_1418)"/>
<path d="M15.2031 87.3933C15.9371 83.9621 18.3061 81.2239 22.0431 81.3558C22.0431 81.3558 53.5735 87.7893 68.655 87.7893C83.7359 87.7893 110.996 82.2792 116.134 81.3558C118.503 80.927 120.271 82.3457 121.272 84.5892C116.968 83.4342 112.998 84.5233 108.96 85.1498C103.622 85.9746 102.12 89.2739 96.4485 89.7686C90.7762 90.2638 80.7668 90.9236 77.7638 92.5733C74.7608 94.2229 66.3526 98.1488 64.7846 101.053L56.7767 98.1488C56.7767 98.1488 43.5972 90.5934 39.7268 89.9337C35.8564 89.2739 24.5121 85.3148 19.1736 86.7994C17.6054 87.2614 16.2708 87.3933 15.2031 87.3933Z" fill="url(#paint5_radial_98_1418)"/>
<path d="M16.1345 98.6102C24.309 104.549 40.4913 108.97 68.6516 108.97C96.8126 108.97 112.962 104.549 121.169 98.6102C121.269 98.5116 121.403 98.4451 121.503 98.3465C122.237 105.11 120.435 110.917 116.365 113.853C108.924 119.264 94.2431 123.289 68.6516 123.289C43.0605 123.289 28.3796 119.264 20.9391 113.853C16.8685 110.883 15.0668 105.11 15.8008 98.3465C15.9009 98.4124 16.0344 98.5116 16.1345 98.6102Z" fill="url(#paint6_radial_98_1418)"/>
<path d="M116.899 75.3854C114.964 74.9893 110.96 75.8474 99.1155 78.1568C87.2709 80.4662 24.3098 77.8266 19.9055 76.4079C16.7024 75.3854 13.0989 82.5114 15.5013 84.7222C16.8359 85.9099 17.7034 83.9633 23.0419 85.0191C37.8896 87.9224 46.4979 89.5061 62.0464 102.274C62.5469 102.67 63.2808 102.637 63.7148 102.176C66.1502 99.701 73.7574 92.2775 78.9293 90.7929C85.2018 88.9782 97.3807 90.265 103.62 86.009C109.826 81.753 121.471 85.7448 120.47 80.9941C119.635 77.035 118.834 75.7809 116.899 75.3854Z" fill="#FFCB4B"/>
<path d="M31.7144 81.3569C37.9871 82.9401 57.5727 86.4704 63.9787 85.4805C70.3849 84.4912 89.8373 83.5672 93.741 83.4353C97.6446 83.3035 101.248 85.6456 93.0736 85.316C84.8994 84.9858 76.6913 85.8107 73.5215 87.6254C70.3516 89.4402 66.5483 97.853 65.7141 94.3886C64.88 90.9248 63.2116 90.0999 58.2066 91.4194C53.2018 92.7389 52.3677 87.955 46.6955 87.6254C41.0234 87.2952 36.3522 84.3261 29.1786 82.8415C22.005 81.3569 20.8705 78.6182 31.7144 81.3569Z" fill="url(#paint7_linear_98_1418)"/>
<path d="M16.2695 78.2857C17.2705 76.8997 18.6384 76.0089 19.9064 76.405C24.3106 77.7904 87.2715 80.4627 99.116 78.1533C110.961 75.8438 114.998 74.9531 116.9 75.3818C117.934 75.6128 118.668 76.0748 119.236 77.0974C117.601 78.2192 114.698 78.6485 113.664 78.2192C109.559 76.5036 108.525 78.4834 107.024 79.737C105.522 80.9906 105.122 78.3516 103.22 79.3409C101.318 80.3308 98.8827 83.3006 97.7149 83.3006C96.547 83.3006 93.3772 83.3665 92.3762 83.6302C91.3752 83.8944 87.8723 82.7062 86.8713 82.3766C85.8703 82.0464 85.0361 82.3107 85.0361 82.3107C85.0361 82.3107 82.5336 83.5643 82.3003 84.5542C82.0664 85.5441 80.1315 83.8279 79.5639 83.6302C78.9969 83.4324 76.628 85.4449 75.06 85.4449C73.4914 85.4449 72.8911 84.7852 70.3886 82.5417C69.4874 81.7495 64.5495 86.5334 64.049 87.2597C63.5485 87.9853 61.3131 85.6759 59.6448 84.5868C57.9765 83.4983 56.9755 84.686 55.4741 85.841C53.9726 86.9954 54.4064 86.8963 52.8048 85.3458C51.2033 83.7953 47.9334 81.5844 47.4663 82.0138C46.9992 82.4425 47.1327 85.0488 45.2976 83.5975C43.9963 82.5743 40.96 82.7727 39.6922 83.2673C38.4243 83.762 37.1897 83.2014 37.0229 83.0363C36.8561 82.8713 33.653 81.0238 31.0171 79.3742C30.3498 78.9781 22.9093 80.1331 21.3411 80.5618C19.7729 80.9906 17.9378 80.5618 17.9378 80.5618C17.9378 80.5618 17.1036 79.0113 16.2695 78.2857Z" fill="url(#paint8_radial_98_1418)"/>
<path d="M117.467 69.4785C119.135 70.4684 123.039 71.5243 123.206 71.953C123.372 72.3823 121.771 73.2731 119.802 74.9228C118.134 76.3082 115.732 77.1663 114.464 77.1663C113.196 77.1663 108.525 76.7702 107.023 77.9911C105.522 79.2114 105.088 77.826 103.186 78.8159C101.284 79.8053 98.8485 81.5214 97.6806 81.5214C96.5128 81.5214 93.3435 81.5874 92.3425 81.851C91.3415 82.1153 87.838 80.9276 86.837 80.5974C85.836 80.2673 85.0019 80.5315 85.0019 80.5315C85.0019 80.5315 82.4994 81.7851 82.266 82.775C82.0321 83.7649 80.0972 82.0494 79.5302 81.851C78.9626 81.6533 76.5937 83.6658 75.0257 83.6658C73.4577 83.6658 71.3554 83.1711 70.3544 82.5108C69.3534 81.851 64.5152 84.7543 64.0147 85.4805C63.5142 86.2062 61.5128 85.0844 59.8445 83.9959C58.176 82.9068 56.9081 82.9401 55.44 84.0618C53.9719 85.1836 54.3723 85.1177 52.7708 83.5666C51.1692 82.0161 47.8994 80.9603 47.4323 81.4223C46.9652 81.8843 46.4314 83.006 45.2635 81.8184C44.0957 80.6301 40.926 80.9935 39.6581 81.4882C38.3902 81.9829 37.1557 81.4223 36.9889 81.2572C36.822 81.0921 34.0194 80.2346 31.3835 78.6176C30.7161 78.2221 22.8752 78.3539 21.3071 78.7827C19.7388 79.2114 17.9037 78.7827 17.9037 78.7827C17.9037 78.7827 16.8027 76.6051 15.8685 76.2096C14.9008 75.8135 14 74.7244 14 74.3948C14 74.0647 14.6673 73.8996 15.1678 73.0089C15.6683 72.1181 16.8694 71.3265 17.5701 70.6335C18.2708 69.9405 45.5305 73.6686 45.5305 73.6686L88.3053 73.9329L108.725 70.4684L117.467 69.4785Z" fill="url(#paint9_linear_98_1418)"/>
<path d="M106.457 66.5735C110.027 69.1139 115.032 70.8628 117.367 72.2814C119.703 73.7001 115.932 73.8978 113.763 74.0629C111.595 74.228 113.096 76.3723 110.193 75.8118C107.291 75.2506 107.19 73.6668 104.255 74.5576C101.319 75.4489 105.823 66.3758 106.156 66.4743" fill="url(#paint10_linear_98_1418)"/>
<path d="M51.7383 77.8913C55.6754 79.2441 55.5753 80.3658 57.2436 81.3557C58.9121 82.3457 59.3123 79.541 63.4831 80.2667C67.6534 80.9929 66.0189 78.4852 71.8242 80.5968C77.6301 82.7085 76.7627 81.1247 75.561 80.3332C74.3599 79.541 77.3962 78.1223 74.8272 77.2642C72.2582 76.3735 59.7124 75.1532 59.4126 75.285C59.1122 75.4168 51.7383 77.8913 51.7383 77.8913Z" fill="url(#paint11_linear_98_1418)"/>
<path d="M111.63 70.1365C110.595 72.6769 109.995 75.0528 109.561 77.1972C108.527 77.2963 107.592 77.5273 107.059 77.9888C107.826 75.7126 108.26 73.0071 108.293 70.5658L108.727 70.4999L111.63 70.1365Z" fill="url(#paint12_linear_98_1418)"/>
<path d="M16.5357 71.5219C16.9027 71.225 17.2697 70.9281 17.5366 70.6638C18.2373 69.9714 45.4636 73.6995 45.4636 73.6995L88.2386 73.9632L99.5494 72.0498C98.8488 75.2173 98.3816 78.7471 96.7797 81.5517C96.2127 81.5517 95.5122 81.585 94.8116 81.6177C95.6119 80.5292 96.7465 80.1331 96.4799 77.7577C96.1462 74.6894 93.1094 72.0166 89.9402 77.1966C88.9059 78.8795 87.7042 79.8029 86.3363 80.5292C85.536 80.3641 84.9352 80.5618 84.9352 80.5618C84.9352 80.5618 83.3333 81.354 82.5662 82.1788C82.099 82.3766 81.5985 82.6076 81.1312 82.8712C80.4977 82.5417 79.7633 81.9805 79.4297 81.8819C79.3632 81.8487 79.2296 81.8819 79.096 81.9146C82.0325 78.7144 83.4004 74.8872 77.8949 77.2957C70.8885 80.3641 68.4525 77.6253 63.1138 82.5084C62.2797 83.2673 61.379 83.8944 60.4112 84.4223C60.1779 84.2899 59.9446 84.1254 59.7439 83.993C59.377 83.762 59.0433 83.5975 58.7097 83.4651C61.2454 82.2115 64.949 78.3183 61.6462 78.5161C57.5419 78.7803 46.7315 76.3717 39.8582 80.1657C38.924 80.6937 37.9564 81.0897 37.0555 81.3867C36.9554 81.354 36.8887 81.2875 36.8887 81.2548C36.7218 81.0897 34.1193 80.2982 31.5502 78.7803C31.6503 78.7144 31.7504 78.6812 31.8505 78.6152C37.2891 76.0422 27.246 74.6562 22.5081 76.7019C18.7378 78.4175 14.3001 74.7221 16.5357 71.5219Z" fill="url(#paint13_linear_98_1418)"/>
<path d="M19.5373 70.1698C21.9396 71.9513 17.5687 73.0071 17.2018 74.2607C16.8347 75.5148 17.9358 73.5683 22.7071 74.5249C27.4783 75.4816 29.2467 74.5249 31.6491 74.7559C34.0513 74.9869 27.5451 68.1573 26.5441 68.1573C25.5431 68.1573 19.5373 70.1698 19.5373 70.1698Z" fill="url(#paint14_linear_98_1418)"/>
<path d="M34.0508 75.4163C34.1175 75.4495 34.2176 75.5154 34.2843 75.5487C36.9536 77.2969 37.3206 79.4418 38.9889 79.9032C40.7239 80.3985 38.6552 78.848 39.5561 78.155C40.4569 77.4293 36.9536 74.7565 36.9536 74.7565" fill="url(#paint15_linear_98_1418)"/>
<path d="M118.67 70.3354C118.67 70.3354 107.025 79.5731 68.321 79.5731C57.8439 79.5731 49.369 78.9133 42.5625 77.924C41.7283 77.7916 40.1268 77.924 39.326 77.7916C38.6253 77.693 38.7588 77.3296 38.1248 77.1978C24.4116 74.7233 18.9063 71.0943 18.1055 70.5005C22.1761 70.4346 45.4653 73.6348 45.4653 73.6348L88.24 73.8984L108.66 70.4346L117.435 69.4447C117.768 69.6424 118.236 69.8734 118.736 70.0712C118.736 70.2036 118.703 70.3022 118.67 70.3354Z" fill="url(#paint16_radial_98_1418)"/>
<path d="M18.0025 62.2207C18.0025 62.2207 29.6471 69.4132 68.3512 69.4132C107.055 69.4132 118.667 62.1215 118.667 62.1215H118.933C119.2 64.4309 119.1 68.7861 118.667 69.7101C118.667 69.7101 107.022 78.2221 68.318 78.2221C29.6137 78.2221 17.9691 69.8087 17.9691 69.8087C17.5688 68.8852 17.4687 64.5301 17.7022 62.2207H18.0025Z" fill="url(#paint17_radial_98_1418)"/>
<path d="M118.467 61.5924C119 61.8561 119 62.615 118.467 62.8787C114.596 64.8585 100.449 70.6323 68.3512 70.6323C36.2537 70.6323 22.1067 64.8252 18.2363 62.8787C17.7025 62.615 17.7025 61.8561 18.2363 61.5924C22.1067 59.6126 36.2537 53.8389 68.3512 53.8389C100.449 53.8058 114.596 59.6126 118.467 61.5924Z" fill="url(#paint18_radial_98_1418)"/>
<path d="M15.8009 98.3465C15.901 98.4451 16.0345 98.5116 16.1346 98.6102C16.8353 99.1381 17.636 99.6333 18.4702 100.128C20.3053 102.702 21.5064 106.331 25.8773 109.432C33.3846 114.711 44.8957 119.231 68.6517 119.231C109.759 119.231 115.264 106.793 118.4 100.392C119.401 99.8311 120.302 99.2372 121.136 98.6434C121.236 98.5442 121.37 98.4783 121.47 98.3792C122.204 105.143 120.402 110.949 116.332 113.886C108.891 119.297 94.2099 123.322 68.6185 123.322C43.0272 123.322 28.3464 119.297 20.9059 113.886C16.8686 110.883 15.0669 105.11 15.8009 98.3465Z" fill="url(#paint19_linear_98_1418)"/>
<path d="M68.6519 14.6773C29.0467 14.6773 14.6328 40.3128 14.6328 55.2585C14.6328 67.697 51.6686 68.0598 68.6519 68.0598C85.6345 68.0598 122.67 67.6638 122.67 55.2585C122.67 40.3128 108.257 14.6773 68.6519 14.6773Z" fill="url(#paint20_linear_98_1418)"/>
<path opacity="0.75" d="M67.1195 14.6773C67.62 14.6773 68.1205 14.6773 68.6548 14.6773C80.7327 14.6773 90.4423 17.0528 98.1499 20.781C106.658 31.6686 104.022 43.612 83.1687 37.8713C58.478 31.0747 53.6734 25.8289 67.1195 14.6773Z" fill="url(#paint21_radial_98_1418)"/>
<path d="M50.8678 16.6541C30.3147 39.914 72.7224 56.9383 95.0104 54.7608C116.365 52.6822 115.33 34.8661 95.2105 19.4914C114.93 27.6077 122.67 44.3021 122.67 55.2557C122.67 67.6941 85.6345 68.0569 68.6519 68.0569C51.6686 68.0569 14.6328 67.6608 14.6328 55.2557C14.6328 42.7844 24.6425 22.9227 50.8678 16.6541Z" fill="url(#paint22_linear_98_1418)"/>
<path d="M68.6519 68.0908C51.6686 68.0908 14.6328 67.6947 14.6328 55.2896C14.6328 44.7319 21.773 28.8954 39.8572 20.4822C23.3746 41.8286 46.1967 57.0712 60.9443 58.9849C80.3962 61.5253 118.266 64.7914 121.102 46.0186C122.17 49.3179 122.67 52.4852 122.67 55.2896C122.67 67.6947 85.6345 68.0908 68.6519 68.0908Z" fill="url(#paint23_linear_98_1418)"/>
<path d="M91.9742 43.9737C91.8739 43.8748 91.6738 43.9077 91.6406 44.0727C91.507 44.7985 91.2066 46.4812 91.4066 47.1081C91.6406 47.9329 92.3744 48.4278 93.0417 48.2628C93.7091 48.0649 94.0427 47.24 93.8088 46.4152C93.642 45.7883 92.508 44.5346 91.9742 43.9737Z" fill="url(#paint24_radial_98_1418)"/>
<path d="M84.5348 39.4857C84.6019 39.6177 84.802 39.6177 84.8352 39.4857C85.0691 38.7269 85.5358 37.2092 85.5025 36.5494C85.4693 35.6256 85.0691 34.8997 84.5686 34.9328C84.0681 34.9657 83.6674 35.6916 83.7012 36.6154C83.7345 37.2422 84.2682 38.7599 84.5348 39.4857Z" fill="url(#paint25_radial_98_1418)"/>
<path d="M72.122 43.8749C72.2224 44.0069 72.4225 43.9409 72.4225 43.7759C72.3554 42.8192 72.1553 40.8726 71.8887 40.1137C71.488 39.025 70.8206 38.2991 70.3201 38.4641C69.8535 38.6291 69.7864 39.6188 70.1533 40.7076C70.4537 41.4664 71.555 43.0501 72.122 43.8749Z" fill="url(#paint26_radial_98_1418)"/>
<path d="M110.793 37.3767C110.926 37.3108 110.926 37.1128 110.759 37.0798C109.959 36.8488 108.291 36.4529 107.59 36.4859C106.622 36.5519 105.855 36.9808 105.888 37.5087C105.922 38.0036 106.722 38.3665 107.69 38.3335C108.39 38.2675 109.992 37.6736 110.793 37.3767Z" fill="url(#paint27_radial_98_1418)"/>
<path d="M97.5809 28.3348C97.7145 28.2358 97.6474 28.0379 97.5144 28.0379C96.6131 27.9719 94.6782 27.8399 93.9105 28.0379C92.8763 28.3018 92.1757 28.9617 92.3093 29.5226C92.4429 30.0834 93.41 30.3144 94.4443 30.0505C95.2119 29.8855 96.8138 28.8297 97.5809 28.3348Z" fill="url(#paint28_radial_98_1418)"/>
<path d="M72.6897 27.0814C72.8566 27.0814 72.9236 26.8834 72.7901 26.7844C72.0895 26.2236 70.6212 25.0028 69.8541 24.7059C68.8531 24.343 67.8854 24.475 67.6853 25.0028C67.4852 25.5307 68.1187 26.2895 69.1197 26.6525C69.8541 26.9494 71.7891 27.0484 72.6897 27.0814Z" fill="url(#paint29_radial_98_1418)"/>
<path d="M83.102 17.4473C83.0349 17.3153 82.8348 17.3483 82.8016 17.4803C82.6015 18.1402 82.234 19.4599 82.2678 20.0208C82.3343 20.7796 82.8016 21.3735 83.3021 21.3404C83.8026 21.3075 84.1362 20.6476 84.0691 19.8558C84.0359 19.2619 83.4018 18.0412 83.102 17.4473Z" fill="url(#paint30_radial_98_1418)"/>
<path d="M70.9561 17.3819C71.0891 17.4478 71.2226 17.3159 71.1894 17.1509C70.889 16.4581 70.2549 15.0724 69.8215 14.6105C69.2206 14.0166 68.4203 13.8186 68.0528 14.1816C67.6859 14.5445 67.8527 15.3364 68.4536 15.9632C68.887 16.4251 70.2887 17.085 70.9561 17.3819Z" fill="url(#paint31_radial_98_1418)"/>
<path d="M56.3052 16.8539C56.1717 16.7879 56.0382 16.9199 56.0716 17.0518C56.3719 17.8107 57.0726 19.5593 57.573 20.0872C58.2404 20.8131 59.1747 21.044 59.6414 20.6151C60.1087 20.1862 59.9418 19.2624 59.2745 18.5365C58.7408 18.0416 57.0726 17.2168 56.3052 16.8539Z" fill="url(#paint32_radial_98_1418)"/>
<path d="M55.1384 29.753C55.005 29.654 54.8381 29.753 54.8715 29.918C55.005 30.7428 55.3386 32.5574 55.739 33.2173C56.2395 34.0421 57.107 34.471 57.6408 34.1411C58.1747 33.8112 58.2081 32.8873 57.6742 32.0295C57.3072 31.3697 55.8057 30.2479 55.1384 29.753Z" fill="url(#paint33_radial_98_1418)"/>
<path d="M44.7968 45.0963C44.8302 44.9643 44.6634 44.8323 44.5633 44.8983C43.8626 45.3272 42.261 46.317 41.7939 46.9109C41.1933 47.7027 41.1266 48.6265 41.6271 48.9894C42.1275 49.3524 43.0284 49.0224 43.629 48.2636C44.0961 47.7027 44.5966 45.8881 44.7968 45.0963Z" fill="url(#paint34_radial_98_1418)"/>
<path d="M41.7278 35.8253C41.8613 35.7593 41.8613 35.5613 41.7278 35.5284C40.9604 35.2314 39.2254 34.5386 38.458 34.5386C37.457 34.5386 36.6562 35.0335 36.6562 35.6603C36.6562 36.2872 37.457 36.7821 38.458 36.7821C39.1921 36.7821 40.9604 36.1222 41.7278 35.8253Z" fill="url(#paint35_radial_98_1418)"/>
<path d="M42.1928 23.8485C42.2594 23.7166 42.126 23.5846 41.9925 23.6176C41.1917 23.8815 39.4234 24.4754 38.8228 24.9373C38.0554 25.5642 37.7885 26.455 38.1889 26.9499C38.5893 27.4448 39.5235 27.3128 40.2909 26.6859C40.8914 26.191 41.8257 24.5744 42.1928 23.8485Z" fill="url(#paint36_radial_98_1418)"/>
<path d="M25.7439 40.2145C25.6772 40.3465 25.7773 40.5115 25.9107 40.4455C26.7115 40.2475 28.5466 39.7857 29.1472 39.3567C29.9479 38.7959 30.315 37.9051 29.9479 37.4102C29.5809 36.9153 28.6133 36.9482 27.8125 37.5091C27.212 37.971 26.1776 39.5217 25.7439 40.2145Z" fill="url(#paint37_radial_98_1418)"/>
<path d="M58.5087 43.6125C58.6755 43.6125 58.7426 43.4475 58.6423 43.3486C58.0752 42.7547 56.7739 41.435 56.0732 41.105C55.1724 40.7091 54.2381 40.8081 53.9712 41.402C53.7043 41.9958 54.2381 42.7547 55.139 43.1506C55.8063 43.4475 57.6748 43.5465 58.5087 43.6125Z" fill="url(#paint38_radial_98_1418)"/>
<path d="M105.887 37.4745C105.887 37.3425 105.921 37.2435 105.987 37.1445C106.688 37.7714 108.656 38.0353 110.558 36.9796C110.625 37.0126 110.725 37.0126 110.792 37.0456C110.959 37.0785 110.959 37.3095 110.825 37.3425C110.024 37.6394 108.456 38.2333 107.722 38.2663C106.721 38.3653 105.887 38.0024 105.887 37.4745Z" fill="url(#paint39_linear_98_1418)"/>
<path d="M97.6465 28.1726C97.6465 28.2386 97.6465 28.3046 97.58 28.3376C96.8455 28.8325 95.211 29.8882 94.4101 30.0862C93.3759 30.3501 92.4081 30.1192 92.2745 29.5583C92.208 29.2944 92.3416 28.9644 92.6415 28.7005C93.1752 29.3274 93.209 30.3171 94.4101 29.5583C95.5109 28.8325 96.6455 28.4695 97.6465 28.1726Z" fill="url(#paint40_linear_98_1418)"/>
<path d="M91.4069 47.1067C91.3737 46.9748 91.3398 46.7768 91.3398 46.5459C91.7073 47.0408 92.041 47.4367 92.3076 47.6016C92.9417 47.9316 93.8091 47.5027 93.6423 46.1169C93.7088 46.249 93.7758 46.3479 93.7758 46.4469C94.0092 47.2717 93.6755 48.0965 93.0082 48.2945C92.3408 48.4925 91.6403 47.9316 91.4069 47.1067Z" fill="url(#paint41_linear_98_1418)"/>
<path d="M84.5349 38.5304C85.2693 39.0253 85.2693 36.7488 85.0354 35.1652C85.3026 35.4621 85.4694 35.957 85.5026 36.5509C85.5359 37.2108 85.0692 38.7284 84.8353 39.4873C84.8021 39.6523 84.5687 39.6523 84.5349 39.4873C84.4351 39.2233 84.3016 38.8604 84.168 38.4645C84.2683 38.3985 84.4019 38.4315 84.5349 38.5304Z" fill="url(#paint42_linear_98_1418)"/>
<path d="M70.0519 38.6942C70.4853 39.0902 71.0197 40.4428 71.6864 42.0595C71.8871 42.5544 72.1204 42.7524 72.3205 42.7853C72.3537 43.1483 72.3876 43.5112 72.4208 43.7751C72.4208 43.9401 72.2207 44.0061 72.1204 43.8741C71.5534 43.0823 70.4521 41.4657 70.1855 40.7068C69.8851 39.849 69.8518 39.0902 70.0519 38.6942Z" fill="url(#paint43_linear_98_1418)"/>
<path d="M67.6504 25.0053C67.8837 25.0713 68.117 25.2692 68.3177 25.5992C68.918 26.5229 70.7531 26.7869 72.6216 26.6549C72.6886 26.6879 72.7219 26.7539 72.7551 26.7869C72.8887 26.8859 72.7884 27.0838 72.6548 27.0838C71.7541 27.0509 69.8192 26.9519 69.0515 26.6879C68.0838 26.292 67.4497 25.5662 67.6504 25.0053Z" fill="url(#paint44_linear_98_1418)"/>
<path d="M82.8679 17.3804C82.9677 17.9412 82.8008 19.129 82.6678 19.7229C82.501 20.3827 83.1013 20.9766 83.9687 20.7456C83.8357 21.0756 83.6018 21.3065 83.3352 21.3065C82.8347 21.3395 82.3674 20.7786 82.3003 19.9868C82.2338 19.4259 82.634 18.1062 82.8347 17.4463C82.8008 17.4134 82.8347 17.3804 82.8679 17.3804Z" fill="url(#paint45_linear_98_1418)"/>
<path d="M67.8164 14.7086C68.6506 15.1706 69.9182 16.5563 71.0195 16.8202C71.086 16.9522 71.1198 17.0842 71.1863 17.1831C71.2528 17.3151 71.086 17.4471 70.953 17.4141C70.2857 17.1172 68.8507 16.4573 68.4172 15.9954C68.0165 15.5665 67.8164 15.1046 67.8164 14.7086Z" fill="url(#paint46_linear_98_1418)"/>
<path d="M56.0724 17.0839C56.039 17.0179 56.0724 16.952 56.1058 16.9189C56.9066 17.6118 57.7408 19.5254 58.1745 19.7894C58.6081 20.0533 59.2089 20.4162 59.8762 19.9213C59.9095 20.2182 59.8091 20.4822 59.609 20.6802C59.1418 21.109 58.2412 20.8781 57.5406 20.1522C57.0734 19.5584 56.3727 17.8428 56.0724 17.0839Z" fill="url(#paint47_linear_98_1418)"/>
<path d="M58.0408 33.3833C58.0074 33.7133 57.874 33.9772 57.6404 34.1092C57.1066 34.4391 56.2391 34.0102 55.7386 33.1854C55.3382 32.5255 55.0046 30.7109 54.8711 29.8861C54.8711 29.8531 54.8711 29.8531 54.8711 29.8531C55.5717 30.5459 55.9721 32.2945 56.3725 32.9544C56.7729 33.5483 57.2401 33.8782 58.0408 33.3833Z" fill="url(#paint48_linear_98_1418)"/>
<path d="M42.6608 48.1972C43.1946 48.0652 44.329 46.4155 44.6293 44.8979C44.7294 44.8979 44.7962 44.9969 44.7628 45.0958C44.5626 45.8877 44.0288 47.6693 43.595 48.2631C42.9944 49.055 42.127 49.3849 41.5931 48.989C41.2594 48.758 41.1927 48.2631 41.3262 47.7353C41.6932 48.4941 42.1603 48.3292 42.6608 48.1972Z" fill="url(#paint49_linear_98_1418)"/>
<path d="M36.6562 35.6589C36.6562 35.593 36.6563 35.527 36.6896 35.461C36.8565 35.428 37.0566 35.494 37.3235 35.692C38.1577 36.2198 40.0262 36.0879 41.6945 35.56C41.828 35.6259 41.828 35.8239 41.6945 35.8569C40.9271 36.1538 39.1587 36.8137 38.4246 36.8137C37.457 36.7807 36.6562 36.2858 36.6562 35.6589Z" fill="url(#paint50_linear_98_1418)"/>
<path d="M41.8927 23.6506C41.9261 23.6506 41.9594 23.6176 41.9928 23.6176C42.1263 23.5846 42.2597 23.7166 42.193 23.8485C41.7926 24.5744 40.8917 26.191 40.2912 26.6859C39.5237 27.3128 38.5895 27.4448 38.1891 26.9499C38.0223 26.7519 37.9889 26.455 38.0557 26.158C38.4894 26.356 39.0567 26.6859 39.5237 26.7189C40.2244 26.7849 40.9918 24.9703 41.8927 23.6506Z" fill="url(#paint51_linear_98_1418)"/>
<path d="M25.7439 40.2124C25.7773 40.1464 25.844 40.0804 25.8774 39.9814C26.7448 40.0804 27.9127 39.3876 28.7468 38.5297C29.2139 38.0348 29.7144 37.9689 30.0814 37.8369C30.0814 38.3318 29.7478 38.9256 29.1472 39.3216C28.5132 39.7505 26.7115 40.2124 25.9107 40.4103C25.7773 40.5093 25.6772 40.3444 25.7439 40.2124Z" fill="url(#paint52_radial_98_1418)"/>
<path d="M58.5087 43.6125C58.6755 43.6125 58.7426 43.4475 58.6423 43.3486C58.0752 42.7547 56.7739 41.435 56.0732 41.105C55.1724 40.7091 54.2381 40.8081 53.9712 41.402C53.7043 41.9958 54.2381 42.7547 55.139 43.1506C55.8063 43.4475 57.6748 43.5465 58.5087 43.6125Z" fill="url(#paint53_radial_98_1418)"/>
<path d="M54.674 42.061C55.2746 43.0508 56.9763 43.4136 58.4446 43.1497C58.5111 43.2157 58.5776 43.2817 58.6114 43.3477C58.7112 43.4467 58.6447 43.6446 58.4778 43.6116C57.6436 43.5786 55.7751 43.4467 55.1077 43.1497C54.2069 42.7538 53.7064 41.962 53.94 41.4011C53.9733 41.3681 54.0067 41.3351 54.0067 41.2691C54.2736 41.4341 54.4738 41.698 54.674 42.061Z" fill="url(#paint54_linear_98_1418)"/>
<path d="M68.3516 63.5378C130.878 63.5378 121.102 46.0189 116.465 36.4839C120.769 42.9836 122.67 49.8461 122.67 55.2569C122.67 67.6953 85.6346 68.0581 68.652 68.0581L68.3516 63.5378Z" fill="url(#paint55_linear_98_1418)"/>
<path d="M68.6515 68.0913C51.6686 68.0913 14.6328 67.6952 14.6328 55.2901C14.6328 50.0113 16.4346 43.3797 20.5052 37.0451C20.038 37.9359 6.9254 63.5711 68.3516 63.5711L68.6515 68.0913Z" fill="url(#paint56_linear_98_1418)"/>
<path d="M43.56 87.458C53.5029 91.252 60.3095 102.503 64.7807 101.051C64.3467 101.48 63.9798 101.843 63.6794 102.14C63.246 102.602 62.5115 102.635 62.011 102.238C46.4628 89.4705 37.8545 87.8867 23.0068 84.9835C17.6683 83.9277 16.8008 85.9075 15.4662 84.6866C14.6321 83.9277 14.532 82.6082 14.8656 81.2222C25.943 85.5447 30.0469 82.3439 43.56 87.458Z" fill="#FFBC47"/>
<path d="M78.9312 90.7585C75.2609 91.8143 70.4227 95.8067 67.0195 98.9409C67.9873 96.3672 70.523 92.1445 76.6959 89.5708C83.7023 86.6676 94.9799 88.3832 100.118 86.1729C102.454 85.1497 108.193 80.9597 113.164 81.8504C116.868 82.5107 119.437 81.1247 120.004 79.0463C120.171 79.6069 120.305 80.234 120.472 80.9597C121.473 85.7109 109.827 81.7518 103.622 85.9746C97.3826 90.2306 85.2038 88.9443 78.9312 90.7585Z" fill="url(#paint57_linear_98_1418)"/>
<path d="M20.9391 113.853C16.8685 110.883 15.0668 105.11 15.8008 98.3465C15.9009 98.4451 16.0344 98.5116 16.1345 98.6102C16.4014 98.8085 16.7017 99.0062 17.002 99.204C15.5673 113.292 33.9517 121.606 72.4223 121.606C109.558 121.606 117.866 114.414 121.036 98.6761C121.069 98.6434 121.103 98.6102 121.136 98.6102C121.236 98.5116 121.37 98.4451 121.47 98.3465C122.204 105.11 120.402 110.917 116.332 113.853C108.891 119.264 94.2098 123.289 68.6184 123.289C43.0605 123.289 28.3796 119.264 20.9391 113.853Z" fill="url(#paint58_linear_98_1418)"/>
<path d="M104.555 78.4181C105.322 78.2863 106.357 78.022 107.725 76.6698C109.092 75.3171 114.464 77.1645 116.9 75.383C118.969 73.8652 120.304 71.8527 122.339 71.4898C122.839 71.6876 123.173 71.8527 123.206 71.9845C123.373 72.3806 121.771 73.304 119.803 74.9537C118.135 76.3397 115.733 77.1972 114.464 77.1972C113.197 77.1972 108.525 76.8017 107.024 78.022C105.956 78.8801 105.456 78.3854 104.555 78.4181Z" fill="url(#paint59_linear_98_1418)"/>
<path d="M17.5013 77.6924C18.6357 78.8142 25.3422 78.0226 28.7455 76.9335C32.1488 75.845 37.5874 81.2887 38.2547 81.1568C41.1908 80.6622 43.4264 80.0018 44.8277 81.1568C46.229 82.3118 46.3291 80.8926 47.23 80.6622C48.1309 80.4312 52.7354 80.5957 53.4694 82.8065C53.8364 83.895 54.3703 84.0601 55.1043 84.3902C54.0366 85.2151 54.2368 85.0168 52.8021 83.5981C51.2006 82.0143 47.9307 80.9917 47.4636 81.4537C46.9965 81.9157 46.4626 83.0375 45.2948 81.8498C44.1271 80.6622 40.9573 81.025 39.6894 81.5197C38.4215 82.0143 37.187 81.4537 37.0201 81.2887C36.8534 81.1236 34.0506 80.2661 31.4147 78.6491C30.7474 78.2536 22.9065 78.3854 21.3383 78.8142C19.7701 79.2435 17.935 78.8142 17.935 78.8142C17.935 78.8142 16.8339 76.6366 15.8997 76.2411C14.9321 75.845 14.0312 74.7559 14.0312 74.4263C17.1342 76.0427 16.3334 76.538 17.5013 77.6924Z" fill="url(#paint60_linear_98_1418)"/>
<path d="M67.0166 82.3451C70.0196 79.2108 72.689 83.0048 74.0901 83.0707C76.7595 83.1699 78.7615 78.617 80.83 82.642C80.2962 82.3118 79.7957 81.949 79.5291 81.8831C78.9283 81.718 76.5926 83.6978 75.0246 83.6978C73.4566 83.6978 71.3543 83.2026 70.3533 82.5428C69.3523 81.8831 64.5141 84.7863 64.0136 85.512C63.68 86.0072 62.6457 85.6444 61.5117 85.0173C62.8796 85.0832 64.1472 85.3475 67.0166 82.3451Z" fill="url(#paint61_linear_98_1418)"/>
<path d="M84.4014 79.7061C83.3333 79.3106 80.4639 78.1556 82.4659 78.2874C84.4679 78.3866 90.8075 82.082 92.2087 81.2898C93.6099 80.4982 96.7797 81.7518 98.1476 80.3664C99.5488 78.9804 103.219 78.7826 103.219 78.7826C101.284 79.7726 98.8815 81.4882 97.7142 81.4882C96.5464 81.4882 93.3765 81.5541 92.3755 81.8177C91.3745 82.082 87.871 80.8943 86.87 80.5641C85.869 80.234 85.0349 80.4982 85.0349 80.4982C85.0349 80.4982 82.5324 81.7518 82.299 82.7417C82.3655 80.5974 85.4356 80.1022 84.4014 79.7061Z" fill="url(#paint62_linear_98_1418)"/>
<path d="M102.151 113.852C103.52 112.433 104.32 108.936 104.153 105.604C111.828 103.789 117.367 101.348 121.17 98.5763C121.27 98.4772 121.404 98.4112 121.504 98.3121C122.238 105.076 120.436 110.882 116.366 113.819C108.925 119.23 94.2438 123.255 68.6523 123.255C86.6365 123.287 96.9463 119.262 102.151 113.852Z" fill="url(#paint63_linear_98_1418)"/>
<path d="M15.8008 98.3465C15.9009 98.4451 16.0344 98.5116 16.1345 98.6102C19.9381 101.382 25.4768 103.823 33.1509 105.638C32.9507 108.97 33.7848 112.467 35.1528 113.886C40.3912 119.297 50.7012 123.322 68.6516 123.322C43.0605 123.322 28.3796 119.297 20.9391 113.886C16.8685 110.883 15.0668 105.11 15.8008 98.3465Z" fill="url(#paint64_linear_98_1418)"/>
<defs>
<linearGradient id="paint0_linear_98_1418" x1="82.7777" y1="82.2774" x2="39.7568" y2="134.441" gradientUnits="userSpaceOnUse">
<stop stop-color="#FBB87A"/>
<stop offset="1" stop-color="#E89043" stop-opacity="0.97"/>
</linearGradient>
<radialGradient id="paint1_radial_98_1418" cx="0" cy="0" r="1" gradientUnits="userSpaceOnUse" gradientTransform="translate(68.5905 94.1599) rotate(-178.769) scale(73.7012 19.1855)">
<stop stop-color="#7A4400"/>
<stop offset="0.2426" stop-color="#643800"/>
<stop offset="0.47" stop-color="#5E3500"/>
<stop offset="0.7652" stop-color="#4E2C00"/>
<stop offset="1" stop-color="#3C2200"/>
</radialGradient>
<linearGradient id="paint2_linear_98_1418" x1="39.096" y1="94.2002" x2="12.2905" y2="94.2002" gradientUnits="userSpaceOnUse">
<stop offset="0.8063" stop-color="#512D00"/>
<stop offset="0.8662" stop-color="#4B2A00"/>
<stop offset="0.9402" stop-color="#3C2200"/>
</linearGradient>
<linearGradient id="paint3_linear_98_1418" x1="68.6294" y1="80.3647" x2="68.8464" y2="110.938" gradientUnits="userSpaceOnUse">
<stop stop-color="#643800"/>
<stop offset="0.3002" stop-color="#5E3500"/>
<stop offset="0.69" stop-color="#4E2C00"/>
<stop offset="1" stop-color="#3C2200"/>
</linearGradient>
<linearGradient id="paint4_linear_98_1418" x1="86.7845" y1="95.9787" x2="168.125" y2="79.4599" gradientUnits="userSpaceOnUse">
<stop stop-color="#3C2200" stop-opacity="0"/>
<stop offset="1" stop-color="#3C2200"/>
</linearGradient>
<radialGradient id="paint5_radial_98_1418" cx="0" cy="0" r="1" gradientUnits="userSpaceOnUse" gradientTransform="translate(68.2379 85.0687) rotate(179.94) scale(81.0559 15.5812)">
<stop stop-color="#512D00"/>
<stop offset="1" stop-color="#3C2200"/>
</radialGradient>
<radialGradient id="paint6_radial_98_1418" cx="0" cy="0" r="1" gradientUnits="userSpaceOnUse" gradientTransform="translate(69.0944 112.898) rotate(180) scale(73.7771 17.3409)">
<stop stop-color="#E89043"/>
<stop offset="1" stop-color="#C86F34"/>
</radialGradient>
<linearGradient id="paint7_linear_98_1418" x1="60.4857" y1="84.3652" x2="67.2349" y2="52.8809" gradientUnits="userSpaceOnUse">
<stop offset="0.00293411" stop-color="#FFD65B"/>
<stop offset="0.5303" stop-color="#FFD255"/>
<stop offset="1" stop-color="#FFCB4B"/>
</linearGradient>
<radialGradient id="paint8_radial_98_1418" cx="0" cy="0" r="1" gradientUnits="userSpaceOnUse" gradientTransform="translate(67.7601 81.3237) rotate(180) scale(36.6665 36.2569)">
<stop stop-color="#FFBC47"/>
<stop offset="1" stop-color="#FBA23B"/>
</radialGradient>
<linearGradient id="paint9_linear_98_1418" x1="57.9427" y1="101.554" x2="72.6632" y2="61.5242" gradientUnits="userSpaceOnUse">
<stop stop-color="#B0D55B"/>
<stop offset="1" stop-color="#76AB50"/>
</linearGradient>
<linearGradient id="paint10_linear_98_1418" x1="106.317" y1="67.9379" x2="113.883" y2="77.9176" gradientUnits="userSpaceOnUse">
<stop stop-color="#B0D55B"/>
<stop offset="1" stop-color="#76AB50"/>
</linearGradient>
<linearGradient id="paint11_linear_98_1418" x1="63.5724" y1="68.9576" x2="64.2251" y2="82.6507" gradientUnits="userSpaceOnUse">
<stop stop-color="#B0D55B"/>
<stop offset="1" stop-color="#76AB50"/>
</linearGradient>
<linearGradient id="paint12_linear_98_1418" x1="107.641" y1="92.3329" x2="110.088" y2="65.2738" gradientUnits="userSpaceOnUse">
<stop stop-color="#B0D55B"/>
<stop offset="1" stop-color="#76AB50"/>
</linearGradient>
<linearGradient id="paint13_linear_98_1418" x1="56.3736" y1="87.696" x2="58.8211" y2="60.6369" gradientUnits="userSpaceOnUse">
<stop stop-color="#B0D55B"/>
<stop offset="1" stop-color="#76AB50"/>
</linearGradient>
<linearGradient id="paint14_linear_98_1418" x1="31.0946" y1="64.974" x2="22.4677" y2="77.4375" gradientUnits="userSpaceOnUse">
<stop stop-color="#B0D55B"/>
<stop offset="1" stop-color="#76AB50"/>
</linearGradient>
<linearGradient id="paint15_linear_98_1418" x1="39.1667" y1="74.4578" x2="36.6103" y2="78.1509" gradientUnits="userSpaceOnUse">
<stop stop-color="#B0D55B"/>
<stop offset="1" stop-color="#76AB50"/>
</linearGradient>
<radialGradient id="paint16_radial_98_1418" cx="0" cy="0" r="1" gradientUnits="userSpaceOnUse" gradientTransform="translate(68.4464 74.5442) rotate(180) scale(50.569 6.3805)">
<stop offset="0.00134333" stop-color="#4B8C1C" stop-opacity="0"/>
<stop offset="1" stop-color="#4B8C1C"/>
</radialGradient>
<radialGradient id="paint17_radial_98_1418" cx="0" cy="0" r="1" gradientUnits="userSpaceOnUse" gradientTransform="translate(83.8644 72.1507) rotate(180) scale(64.6567 13.8482)">
<stop stop-color="#F78174"/>
<stop offset="0.2904" stop-color="#E74939"/>
<stop offset="0.9631" stop-color="#BD2719"/>
</radialGradient>
<radialGradient id="paint18_radial_98_1418" cx="0" cy="0" r="1" gradientUnits="userSpaceOnUse" gradientTransform="translate(75.0227 57.1667) rotate(180) scale(70.1056 22.405)">
<stop offset="0.0582123" stop-color="#F78174"/>
<stop offset="0.6656" stop-color="#E74939"/>
<stop offset="0.9631" stop-color="#BD2719"/>
</radialGradient>
<linearGradient id="paint19_linear_98_1418" x1="68.5893" y1="102.177" x2="66.1965" y2="140.892" gradientUnits="userSpaceOnUse">
<stop offset="0.0582123" stop-color="#C86F34" stop-opacity="0"/>
<stop offset="1" stop-color="#A3541E"/>
</linearGradient>
<linearGradient id="paint20_linear_98_1418" x1="70.3949" y1="43.0827" x2="77.0863" y2="-1.80978" gradientUnits="userSpaceOnUse">
<stop stop-color="#EFA25F"/>
<stop offset="0.4407" stop-color="#F3A968" stop-opacity="0.9868"/>
<stop offset="1" stop-color="#FBB87A" stop-opacity="0.97"/>
</linearGradient>
<radialGradient id="paint21_radial_98_1418" cx="0" cy="0" r="1" gradientUnits="userSpaceOnUse" gradientTransform="translate(81.3569 24.365) rotate(-169.824) scale(23.3001 12.933)">
<stop stop-color="#FCD2A8" stop-opacity="0.75"/>
<stop offset="1" stop-color="#FCD2A8" stop-opacity="0"/>
</radialGradient>
<linearGradient id="paint22_linear_98_1418" x1="77.8167" y1="8.71862" x2="64.4292" y2="76.7416" gradientUnits="userSpaceOnUse">
<stop offset="0.3191" stop-color="#E89043" stop-opacity="0"/>
<stop offset="1" stop-color="#E89043" stop-opacity="0.97"/>
</linearGradient>
<linearGradient id="paint23_linear_98_1418" x1="73.9527" y1="14.7243" x2="66.1197" y2="75.0138" gradientUnits="userSpaceOnUse">
<stop stop-color="#E89043" stop-opacity="0"/>
<stop offset="1" stop-color="#E89043" stop-opacity="0.97"/>
</linearGradient>
<radialGradient id="paint24_radial_98_1418" cx="0" cy="0" r="1" gradientUnits="userSpaceOnUse" gradientTransform="translate(92.6287 46.09) rotate(180) scale(1.80086 1.78073)">
<stop offset="0.0582123" stop-color="#FFE8B3"/>
<stop offset="1" stop-color="#FFE4A6"/>
</radialGradient>
<radialGradient id="paint25_radial_98_1418" cx="0" cy="0" r="1" gradientUnits="userSpaceOnUse" gradientTransform="translate(84.6182 37.2564) rotate(180) scale(1.79336 1.77333)">
<stop offset="0.0582123" stop-color="#FFE8B3"/>
<stop offset="1" stop-color="#FFE4A6"/>
</radialGradient>
<radialGradient id="paint26_radial_98_1418" cx="0" cy="0" r="1" gradientUnits="userSpaceOnUse" gradientTransform="translate(71.1747 41.1737) rotate(180) scale(2.16196 2.1378)">
<stop offset="0.0582123" stop-color="#FFE8B3"/>
<stop offset="1" stop-color="#FFE4A6"/>
</radialGradient>
<radialGradient id="paint27_radial_98_1418" cx="0" cy="0" r="1" gradientUnits="userSpaceOnUse" gradientTransform="translate(108.323 37.2326) rotate(167.16) scale(1.8761 1.85723)">
<stop offset="0.0582123" stop-color="#FFE8B3"/>
<stop offset="1" stop-color="#FFE4A6"/>
</radialGradient>
<radialGradient id="paint28_radial_98_1418" cx="0" cy="0" r="1" gradientUnits="userSpaceOnUse" gradientTransform="translate(94.9588 29.0671) rotate(180) scale(2.06546 2.04238)">
<stop offset="0.0582123" stop-color="#FFE8B3"/>
<stop offset="1" stop-color="#FFE4A6"/>
</radialGradient>
<radialGradient id="paint29_radial_98_1418" cx="0" cy="0" r="1" gradientUnits="userSpaceOnUse" gradientTransform="translate(70.2374 25.7966) rotate(180) scale(2.0631 2.04004)">
<stop offset="0.0582123" stop-color="#FFE8B3"/>
<stop offset="1" stop-color="#FFE4A6"/>
</radialGradient>
<radialGradient id="paint30_radial_98_1418" cx="0" cy="0" r="1" gradientUnits="userSpaceOnUse" gradientTransform="translate(83.1737 19.3327) rotate(180) scale(1.5597 1.54229)">
<stop offset="0.0582123" stop-color="#FFE8B3"/>
<stop offset="1" stop-color="#FFE4A6"/>
</radialGradient>
<radialGradient id="paint31_radial_98_1418" cx="0" cy="0" r="1" gradientUnits="userSpaceOnUse" gradientTransform="translate(69.5129 15.7138) rotate(180) scale(1.70148 1.68247)">
<stop offset="0.0582123" stop-color="#FFE8B3"/>
<stop offset="1" stop-color="#FFE4A6"/>
</radialGradient>
<radialGradient id="paint32_radial_98_1418" cx="0" cy="0" r="1" gradientUnits="userSpaceOnUse" gradientTransform="translate(57.9888 18.8585) rotate(180) scale(1.97343 1.9514)">
<stop offset="0.0582123" stop-color="#FFE8B3"/>
<stop offset="1" stop-color="#FFE4A6"/>
</radialGradient>
<radialGradient id="paint33_radial_98_1418" cx="0" cy="0" r="1" gradientUnits="userSpaceOnUse" gradientTransform="translate(56.4798 31.9778) rotate(180) scale(1.9671 1.94512)">
<stop offset="0.0582123" stop-color="#FFE8B3"/>
<stop offset="1" stop-color="#FFE4A6"/>
</radialGradient>
<radialGradient id="paint34_radial_98_1418" cx="0" cy="0" r="1" gradientUnits="userSpaceOnUse" gradientTransform="translate(43.0601 47.0447) rotate(180) scale(1.971 1.94899)">
<stop offset="0.0582123" stop-color="#FFE8B3"/>
<stop offset="1" stop-color="#FFE4A6"/>
</radialGradient>
<radialGradient id="paint35_radial_98_1418" cx="0" cy="0" r="1" gradientUnits="userSpaceOnUse" gradientTransform="translate(39.2478 35.6556) rotate(180) scale(2.00103 1.97869)">
<stop offset="0.0582123" stop-color="#FFE8B3"/>
<stop offset="1" stop-color="#FFE4A6"/>
</radialGradient>
<radialGradient id="paint36_radial_98_1418" cx="0" cy="0" r="1" gradientUnits="userSpaceOnUse" gradientTransform="translate(40.1191 25.4175) rotate(180) scale(1.97189 1.94987)">
<stop offset="0.0582123" stop-color="#FFE8B3"/>
<stop offset="1" stop-color="#FFE4A6"/>
</radialGradient>
<radialGradient id="paint37_radial_98_1418" cx="0" cy="0" r="1" gradientUnits="userSpaceOnUse" gradientTransform="translate(27.914 38.7735) rotate(180) scale(1.96896 1.94698)">
<stop offset="0.0582123" stop-color="#FFE8B3"/>
<stop offset="1" stop-color="#FFE4A6"/>
</radialGradient>
<radialGradient id="paint38_radial_98_1418" cx="0" cy="0" r="1" gradientUnits="userSpaceOnUse" gradientTransform="translate(56.29 42.2281) rotate(180) scale(1.95602 1.93418)">
<stop offset="0.0582123" stop-color="#FFE8B3"/>
<stop offset="1" stop-color="#FFE4A6"/>
</radialGradient>
<linearGradient id="paint39_linear_98_1418" x1="110.885" y1="37.6517" x2="105.873" y2="37.6517" gradientUnits="userSpaceOnUse">
<stop offset="0.0582123" stop-color="#FFE8B3"/>
<stop offset="1" stop-color="#FFD87C"/>
</linearGradient>
<linearGradient id="paint40_linear_98_1418" x1="97.6441" y1="29.1895" x2="92.2675" y2="29.1895" gradientUnits="userSpaceOnUse">
<stop offset="0.0582123" stop-color="#FFE8B3"/>
<stop offset="1" stop-color="#FFD87C"/>
</linearGradient>
<linearGradient id="paint41_linear_98_1418" x1="92.6873" y1="44.3963" x2="92.5788" y2="48.7404" gradientUnits="userSpaceOnUse">
<stop offset="0.0582123" stop-color="#FFE8B3"/>
<stop offset="1" stop-color="#FFD87C"/>
</linearGradient>
<linearGradient id="paint42_linear_98_1418" x1="85.5236" y1="37.3788" x2="84.1767" y2="37.3788" gradientUnits="userSpaceOnUse">
<stop offset="0.0582123" stop-color="#FFE8B3"/>
<stop offset="1" stop-color="#FFD87C"/>
</linearGradient>
<linearGradient id="paint43_linear_98_1418" x1="72.4202" y1="41.3073" x2="69.9265" y2="41.3073" gradientUnits="userSpaceOnUse">
<stop offset="0.0582123" stop-color="#FFE8B3"/>
<stop offset="1" stop-color="#FFD87C"/>
</linearGradient>
<linearGradient id="paint44_linear_98_1418" x1="72.8467" y1="26.0516" x2="67.6247" y2="26.0516" gradientUnits="userSpaceOnUse">
<stop offset="0.0582123" stop-color="#FFE8B3"/>
<stop offset="1" stop-color="#FFD87C"/>
</linearGradient>
<linearGradient id="paint45_linear_98_1418" x1="83.9506" y1="19.3452" x2="82.2601" y2="19.3452" gradientUnits="userSpaceOnUse">
<stop offset="0.0582123" stop-color="#FFE8B3"/>
<stop offset="1" stop-color="#FFD87C"/>
</linearGradient>
<linearGradient id="paint46_linear_98_1418" x1="71.1962" y1="16.0557" x2="67.8287" y2="16.0557" gradientUnits="userSpaceOnUse">
<stop offset="0.0582123" stop-color="#FFE8B3"/>
<stop offset="1" stop-color="#FFD87C"/>
</linearGradient>
<linearGradient id="paint47_linear_98_1418" x1="59.899" y1="18.8886" x2="56.0753" y2="18.8886" gradientUnits="userSpaceOnUse">
<stop offset="0.0582123" stop-color="#FFE8B3"/>
<stop offset="1" stop-color="#FFD87C"/>
</linearGradient>
<linearGradient id="paint48_linear_98_1418" x1="58.0552" y1="32.0504" x2="54.8899" y2="32.0504" gradientUnits="userSpaceOnUse">
<stop offset="0.0582123" stop-color="#FFE8B3"/>
<stop offset="1" stop-color="#FFD87C"/>
</linearGradient>
<linearGradient id="paint49_linear_98_1418" x1="44.8139" y1="47.0448" x2="41.3084" y2="47.0448" gradientUnits="userSpaceOnUse">
<stop offset="0.0582123" stop-color="#FFE8B3"/>
<stop offset="1" stop-color="#FFD87C"/>
</linearGradient>
<linearGradient id="paint50_linear_98_1418" x1="41.8364" y1="36.109" x2="36.6592" y2="36.109" gradientUnits="userSpaceOnUse">
<stop offset="0.0582123" stop-color="#FFE8B3"/>
<stop offset="1" stop-color="#FFD87C"/>
</linearGradient>
<linearGradient id="paint51_linear_98_1418" x1="42.22" y1="25.4175" x2="38.0241" y2="25.4175" gradientUnits="userSpaceOnUse">
<stop offset="0.0582123" stop-color="#FFE8B3"/>
<stop offset="1" stop-color="#FFD87C"/>
</linearGradient>
<radialGradient id="paint52_radial_98_1418" cx="0" cy="0" r="1" gradientUnits="userSpaceOnUse" gradientTransform="translate(27.9134 39.1704) rotate(180) scale(1.80624 1.78607)">
<stop offset="0.0582123" stop-color="#FFE8B3"/>
<stop offset="1" stop-color="#FFE4A6"/>
</radialGradient>
<radialGradient id="paint53_radial_98_1418" cx="0" cy="0" r="1" gradientUnits="userSpaceOnUse" gradientTransform="translate(56.29 42.2281) rotate(180) scale(1.95602 1.93418)">
<stop offset="0.0582123" stop-color="#FFE8B3"/>
<stop offset="1" stop-color="#FFE4A6"/>
</radialGradient>
<linearGradient id="paint54_linear_98_1418" x1="58.6849" y1="42.4283" x2="53.8991" y2="42.4283" gradientUnits="userSpaceOnUse">
<stop offset="0.0582123" stop-color="#FFE8B3"/>
<stop offset="1" stop-color="#FFD87C"/>
</linearGradient>
<linearGradient id="paint55_linear_98_1418" x1="84.5799" y1="37.1696" x2="121.297" y2="107.455" gradientUnits="userSpaceOnUse">
<stop offset="0.0582123" stop-color="#C86F34" stop-opacity="0"/>
<stop offset="1" stop-color="#A3541E"/>
</linearGradient>
<linearGradient id="paint56_linear_98_1418" x1="56.86" y1="31.5937" x2="11.913" y2="109.895" gradientUnits="userSpaceOnUse">
<stop offset="0.0582123" stop-color="#C86F34" stop-opacity="0"/>
<stop offset="1" stop-color="#A3541E"/>
</linearGradient>
<linearGradient id="paint57_linear_98_1418" x1="87.701" y1="106.557" x2="100.452" y2="71.8842" gradientUnits="userSpaceOnUse">
<stop stop-color="#FFBC47"/>
<stop offset="1" stop-color="#FBA23B"/>
</linearGradient>
<linearGradient id="paint58_linear_98_1418" x1="68.8552" y1="96.5102" x2="66.8975" y2="142.482" gradientUnits="userSpaceOnUse">
<stop offset="0.0582123" stop-color="#C86F34" stop-opacity="0"/>
<stop offset="1" stop-color="#A3541E"/>
</linearGradient>
<linearGradient id="paint59_linear_98_1418" x1="123.239" y1="75.0015" x2="104.537" y2="75.0015" gradientUnits="userSpaceOnUse">
<stop stop-color="#4B8C1C"/>
<stop offset="1" stop-color="#76AB50"/>
</linearGradient>
<linearGradient id="paint60_linear_98_1418" x1="32.0923" y1="85.7821" x2="35.3057" y2="77.0437" gradientUnits="userSpaceOnUse">
<stop stop-color="#4B8C1C"/>
<stop offset="1" stop-color="#76AB50"/>
</linearGradient>
<linearGradient id="paint61_linear_98_1418" x1="71.065" y1="87.3985" x2="71.2826" y2="78.9302" gradientUnits="userSpaceOnUse">
<stop stop-color="#4B8C1C"/>
<stop offset="1" stop-color="#76AB50"/>
</linearGradient>
<linearGradient id="paint62_linear_98_1418" x1="89.8608" y1="85.5552" x2="93.6379" y2="75.2856" gradientUnits="userSpaceOnUse">
<stop stop-color="#4B8C1C"/>
<stop offset="1" stop-color="#76AB50"/>
</linearGradient>
<linearGradient id="paint63_linear_98_1418" x1="100.126" y1="113.665" x2="116.052" y2="122.893" gradientUnits="userSpaceOnUse">
<stop offset="0.0582123" stop-color="#C86F34" stop-opacity="0"/>
<stop offset="1" stop-color="#A3541E"/>
</linearGradient>
<linearGradient id="paint64_linear_98_1418" x1="37.0432" y1="113.928" x2="13.8301" y2="128.237" gradientUnits="userSpaceOnUse">
<stop offset="0.0582123" stop-color="#C86F34" stop-opacity="0"/>
<stop offset="1" stop-color="#A3541E"/>
</linearGradient>
</defs>
</svg>
