<svg width="32" height="32" viewBox="0 0 32 32" fill="none" xmlns="http://www.w3.org/2000/svg">
<g clip-path="url(#clip0_98_1906)">
<path d="M18.56 0C17.86 0 17.28 0.58 17.28 1.28V3.2C17.28 3.825 17.7425 4.355 18.34 4.46C18.0775 4.885 17.815 5.365 17.56 5.94C17.03 7.135 16.52 8.595 16.12 9.98L15.24 9.48C15.1075 9.4025 14.9525 9.3725 14.8 9.4C14.6775 9.4275 14.5675 9.49 14.48 9.58L13.62 10.4C12.475 9.4175 10.985 8.82 9.36 8.82C5.8675 8.82 2.9925 11.57 2.82 15.36H1.82C0.8225 15.36 0 16.1825 0 17.18V19.3C0 20.2975 0.8225 21.12 1.82 21.12H1.92V23.04C1.92 23.18 1.935 23.1625 1.94 23.18C1.945 23.1975 1.9375 23.2075 1.94 23.22C1.9475 23.245 1.9525 23.2675 1.96 23.3C1.9775 23.3625 2.01 23.4575 2.04 23.56C2.1 23.765 2.1775 24.0425 2.28 24.38C2.4825 25.055 2.77 25.955 3.04 26.84C3.5825 28.6125 4.12 30.36 4.12 30.36C4.1275 30.4075 4.1425 30.455 4.16 30.5C4.3325 30.81 4.51 31.125 4.76 31.42C5.01 31.715 5.4125 32 5.9 32H26.1C26.595 32 27.0525 31.7575 27.32 31.44C27.5875 31.1225 27.7175 30.7625 27.86 30.42C27.8675 30.4 27.875 30.38 27.88 30.36C27.88 30.36 28.4175 28.6125 28.96 26.84C29.23 25.955 29.5175 25.055 29.72 24.38C29.8225 24.0425 29.9 23.765 29.96 23.56C29.99 23.4575 30.0225 23.3625 30.04 23.3C30.0475 23.2675 30.0525 23.245 30.06 23.22C30.0625 23.2075 30.055 23.1975 30.06 23.18C30.065 23.1625 30.08 23.18 30.08 23.04V21.12H30.18C31.1775 21.12 32 20.2975 32 19.3V17.18C32 16.1825 31.1775 15.36 30.18 15.36H28.16V13.96C28.16 12.5175 27.4825 10.05 26.66 7.78C26.25 6.645 25.81 5.57 25.36 4.76C25.3 4.6525 25.24 4.56 25.18 4.46C25.7775 4.355 26.24 3.825 26.24 3.2V1.28C26.24 0.58 25.66 0 24.96 0H18.56ZM18.56 1.28H24.96V3.2H18.56V1.28ZM19.9 4.48H23.58C23.5975 4.49 23.65 4.5225 23.72 4.6C23.86 4.755 24.0425 5.045 24.24 5.4C24.635 6.11 25.065 7.1075 25.46 8.2C26.25 10.385 26.88 12.9725 26.88 13.96V15.36H25.6C25.5925 15.3525 25.5875 15.3475 25.58 15.34L17.26 10.64C17.6525 9.2175 18.185 7.67 18.72 6.46C19.015 5.7925 19.33 5.2225 19.58 4.86C19.705 4.68 19.8125 4.5575 19.88 4.5C19.8975 4.485 19.8925 4.485 19.9 4.48ZM9.36 10.1C10.625 10.1 11.775 10.54 12.68 11.28L8.36 15.36H4.1C4.2625 12.2025 6.5425 10.1 9.36 10.1ZM15 10.84L23 15.36H10.22L15 10.84ZM1.82 16.64H30.18C30.4825 16.64 30.72 16.8775 30.72 17.18V19.3C30.72 19.6025 30.4825 19.84 30.18 19.84H2.6C2.5875 19.84 2.5725 19.84 2.56 19.84H1.82C1.5175 19.84 1.28 19.6025 1.28 19.3V17.18C1.28 16.8775 1.5175 16.64 1.82 16.64ZM3.2 21.12H7.68V28.8C7.68 29.1525 7.9675 29.44 8.32 29.44H10.24C10.5925 29.44 10.88 29.1525 10.88 28.8V21.12H12.16V28.8C12.16 29.1525 12.4475 29.44 12.8 29.44H14.72C15.0725 29.44 15.36 29.1525 15.36 28.8V21.12H16.64V28.8C16.64 29.1525 16.9275 29.44 17.28 29.44H19.2C19.5525 29.44 19.84 29.1525 19.84 28.8V21.12H21.12V28.8C21.12 29.1525 21.4075 29.44 21.76 29.44H23.68C24.0325 29.44 24.32 29.1525 24.32 28.8V21.12H28.8V22.96C28.785 23.0125 28.77 23.1 28.74 23.2C28.6825 23.4 28.5825 23.6825 28.48 24.02C28.2775 24.6925 28.01 25.575 27.74 26.46C27.2075 28.2 26.6975 29.8825 26.68 29.94L26.66 30C26.5375 30.2825 26.4225 30.5025 26.34 30.6C26.25 30.7075 26.255 30.72 26.1 30.72H5.9C5.8525 30.72 5.8575 30.72 5.74 30.58C5.6325 30.4525 5.4775 30.2025 5.32 29.92C5.2975 29.845 4.79 28.1925 4.26 26.46C3.99 25.575 3.7225 24.6925 3.52 24.02C3.4175 23.6825 3.3175 23.4 3.26 23.2C3.23 23.1 3.215 23.0125 3.2 22.96V21.12ZM8.96 21.12H9.6V28.16H8.96V21.12ZM13.44 21.12H14.08V28.16H13.44V21.12ZM17.92 21.12H18.56V28.16H17.92V21.12ZM22.4 21.12H23.04V28.16H22.4V21.12Z" fill="white"/>
</g>
<defs>
<clipPath id="clip0_98_1906">
<rect width="32" height="32" fill="white"/>
</clipPath>
</defs>
</svg>
