<svg width="32" height="32" viewBox="0 0 32 32" fill="none" xmlns="http://www.w3.org/2000/svg">
<path d="M14.668 22.6667H9.33464C7.49019 22.6667 5.91797 22.0167 4.61797 20.7167C3.31797 19.4167 2.66797 17.8444 2.66797 16C2.66797 14.1556 3.31797 12.5833 4.61797 11.2833C5.91797 9.98333 7.49019 9.33333 9.33464 9.33333H14.668V12H9.33464C8.22352 12 7.27908 12.3889 6.5013 13.1667C5.72352 13.9444 5.33464 14.8889 5.33464 16C5.33464 17.1111 5.72352 18.0556 6.5013 18.8333C7.27908 19.6111 8.22352 20 9.33464 20H14.668V22.6667ZM10.668 17.3333V14.6667H21.3346V17.3333H10.668ZM17.3346 22.6667V20H22.668C23.7791 20 24.7235 19.6111 25.5013 18.8333C26.2791 18.0556 26.668 17.1111 26.668 16C26.668 14.8889 26.2791 13.9444 25.5013 13.1667C24.7235 12.3889 23.7791 12 22.668 12H17.3346V9.33333H22.668C24.5124 9.33333 26.0846 9.98333 27.3846 11.2833C28.6846 12.5833 29.3346 14.1556 29.3346 16C29.3346 17.8444 28.6846 19.4167 27.3846 20.7167C26.0846 22.0167 24.5124 22.6667 22.668 22.6667H17.3346Z" fill="#170f09"/>
</svg>
