<svg width="183" height="36" viewBox="0 0 183 36" fill="none" xmlns="http://www.w3.org/2000/svg">
<path d="M23.168 19.904C23.168 25.184 15.52 27.904 10.112 27.904C8.736 27.904 5.6 27.84 3.936 27.84C2.656 27.84 1.504 27.84 0.192 27.904L0 27.456C1.696 25.632 4.672 14.304 5.664 8.832L2.624 6.528L2.72 6.048C4.352 5.856 10.56 5.568 12.224 5.568L12.768 5.888C12.768 7.072 12.288 9.216 11.296 11.424L11.68 11.616C13.376 8.288 15.52 5.568 19.456 5.568C22.112 5.568 24.192 6.528 24.192 9.088C24.192 13.344 19.68 15.52 15.04 16.992L15.136 17.44C16.512 16.96 17.984 16.672 19.296 16.672C21.472 16.672 23.168 17.504 23.168 19.904ZM16.256 7.616C15.104 7.616 13.76 9.088 12 12.512C10.656 17.216 9.024 22.976 7.808 26.464C8.96 27.04 10.112 27.168 10.72 27.168C14.72 27.168 16.192 23.392 16.192 21.248C16.192 18.912 14.848 18.4 12.736 18.4C12.48 18.4 12.192 18.432 11.936 18.464V17.856C14.88 16.704 17.792 12.128 17.792 9.408C17.792 8.256 17.088 7.616 16.256 7.616Z" fill="#fff"/>
<path d="M47.636 16.384C44.18 18.752 39.348 20.384 35.636 20.384C32.852 20.384 30.74 19.136 30.74 16.32C30.74 12.704 33.044 9.984 36.5 9.984C39.892 9.984 42.452 12.64 42.452 17.184C42.452 17.6 42.42 18.016 42.388 18.368C44.244 17.664 46.036 16.704 47.476 15.584L47.636 15.68V16.384ZM31.796 15.872C31.796 18.144 32.852 19.68 35.988 19.68H36.084V18.528C36.084 14.656 35.444 11.712 34.196 11.712C33.108 11.712 31.796 13.536 31.796 15.872ZM36.02 20.992C38.548 20.736 40.564 20.32 42.132 19.616C40.564 23.84 35.956 28.352 30.164 28.352C26.516 28.352 24.436 26.016 24.436 23.04C24.436 19.808 26.388 17.248 28.436 16.16C29.172 16.992 30.676 18.72 31.476 19.776C31.316 20.704 31.284 21.504 31.284 22.464C31.284 24.544 31.444 26.976 33.108 26.976C35.092 26.976 35.7 23.584 36.02 20.992Z" fill="#fff"/>
<path d="M59.7248 20.96C56.5248 25.056 51.3407 28.384 48.2687 28.384C45.9007 28.384 44.2687 26.848 44.2687 22.848C44.2687 14.336 47.8207 3.808 57.9328 3.808C61.0048 3.808 62.7327 4.864 62.7327 6.368C62.7327 8.704 60.2368 9.696 57.2928 10.752C55.6288 11.36 53.6767 12.512 52.4287 13.76C51.8207 16.48 50.7327 21.792 50.7327 25.472C50.7327 26.08 50.9568 26.496 51.4048 26.496C52.7808 26.496 54.6368 23.68 56.0768 20.288C56.8128 20.672 58.5728 20.96 59.7248 20.96ZM56.4608 4.64C55.0848 4.64 53.7728 8 52.6528 12.768C53.7728 11.648 54.8608 10.912 55.6608 10.08C56.5888 9.12 57.3568 7.744 57.3568 5.92C57.3568 5.056 57.0048 4.64 56.4608 4.64ZM67.1168 18.624C64.3648 19.872 61.3568 20.448 59.0848 20.448C56.8128 20.448 54.0928 19.744 54.0928 16.576C54.0928 13.792 55.8528 11.328 58.9248 11.328C61.0688 11.328 62.5088 12.288 62.5088 14.56C62.5088 16.064 61.8688 17.92 60.7168 19.648C62.4128 19.424 65.0047 18.784 67.2767 17.696L67.3727 17.76L67.1168 18.624ZM55.1488 16.8C55.1488 17.984 55.5967 18.752 56.5247 19.232C57.1647 17.536 57.6448 15.744 57.6448 14.336C57.6448 13.472 57.4208 13.024 56.9088 13.024C55.6928 13.024 55.1488 15.04 55.1488 16.8Z" fill="#fff"/>
<path d="M85.8898 24.224C84.3538 25.952 80.5777 28.352 77.8897 28.352C75.6177 28.352 74.3698 27.168 74.3698 25.088C74.3698 23.36 75.2978 20.48 76.6418 17.824L76.1298 17.664C76.0338 17.856 75.5218 19.008 75.3938 19.264C73.3458 23.712 71.2018 28.352 66.7538 28.352C64.2258 28.352 62.9137 26.848 62.9137 24.768C62.9137 23.648 63.7138 21.568 64.4818 19.424C65.2818 17.28 66.0817 15.104 66.0817 13.76C66.0817 13.28 65.8898 13.152 65.6018 13.152C65.0898 13.152 64.3218 13.44 63.6818 13.824L63.5858 13.76L63.7137 12.928C65.1537 12.16 67.1378 11.328 68.8978 11.328C71.3298 11.328 72.4177 12.576 72.4177 14.656C72.4177 15.808 71.7458 17.984 71.0738 20.032C70.4018 22.112 69.7298 24.064 69.7298 24.8C69.7298 25.376 70.0497 25.568 70.4017 25.568C71.1057 25.568 72.1298 24.224 73.3138 21.92C74.6258 19.392 76.1937 15.712 77.8897 11.328C80.1617 11.488 82.7538 12.608 83.6818 13.504C83.6818 15.744 80.1618 23.232 80.1618 26.464C80.1618 26.656 80.1938 26.848 80.2578 26.944C82.9138 25.856 84.6738 24.512 85.7938 23.328L85.8898 23.424V24.224Z" fill="#fff"/>
<path d="M96.0267 16.512C95.6427 16.512 95.3228 16.704 94.6188 17.824C93.3388 19.936 91.5788 23.296 89.4348 28.352C87.7388 28.32 84.5068 27.712 83.2588 26.976C84.4748 24 86.6827 17.248 87.0667 14.08L85.8828 12.288L85.9788 11.808C87.9308 11.52 91.7388 11.328 93.6588 11.328L94.1068 11.648C93.8507 15.072 92.4747 18.624 90.8747 21.856L91.3548 22.144C92.3148 20.352 93.5627 17.792 94.7467 15.936C95.9307 14.112 97.2748 11.328 100.379 11.328C101.947 11.328 102.939 12.16 103.067 13.376C102.331 16.288 101.371 18.24 99.9307 20.864H99.3228C98.3628 18.496 97.0187 16.512 96.0267 16.512Z" fill="#fff"/>
<path d="M118.214 27.456C116.166 32.448 111.43 35.84 106.31 35.84C103.334 35.84 100.069 34.88 99.7175 32C100.677 30.08 103.109 28 104.965 27.232L105.509 27.36C105.317 27.936 105.254 28.576 105.254 29.216C105.254 31.872 106.725 34.656 109.189 34.656C110.053 34.656 111.11 32.128 111.974 29.056C112.87 25.92 114.022 22.24 114.918 19.904L114.406 20C114.214 20.48 113.99 20.96 113.798 21.44C112.069 25.376 110.373 27.424 107.397 27.424C104.837 27.424 103.013 24.864 103.013 21.28C103.013 15.392 106.501 11.328 111.525 11.328C113.221 11.328 114.534 12.032 115.366 13.472L115.046 14.272C114.342 13.344 113.542 12.352 112.518 12.352C111.142 12.352 109.925 16.32 109.925 20.832C109.925 22.88 110.277 24.032 110.981 24.032C111.461 24.032 112.102 23.296 113.03 21.024C113.83 19.104 114.95 16.512 116.614 11.648C118.566 11.968 121.478 13.056 122.598 14.496C122.214 15.456 119.462 24.416 118.214 27.456Z" fill="#fff"/>
<path d="M133.886 12.352C131.934 12.352 130.238 16.736 130.238 21.44C130.238 24.192 131.486 25.92 133.886 25.92C136.83 25.92 139.55 24.512 141.566 21.984L141.694 22.048V22.848C138.814 26.176 134.238 28.352 129.982 28.352C125.694 28.352 123.326 26.048 123.326 22.208C123.326 16.192 128.158 11.328 134.174 11.328C137.918 11.328 139.774 12.704 139.774 15.072C139.774 17.92 136.478 20.256 130.782 20.992L130.59 20.544C133.182 19.2 134.718 16.16 134.718 13.76C134.718 12.736 134.494 12.352 133.886 12.352Z" fill="#fff"/>
<path d="M151.683 16.512C151.299 16.512 150.979 16.704 150.275 17.824C148.995 19.936 147.235 23.296 145.091 28.352C143.395 28.32 140.163 27.712 138.915 26.976C140.131 24 142.339 17.248 142.723 14.08L141.539 12.288L141.635 11.808C143.587 11.52 147.395 11.328 149.315 11.328L149.763 11.648C149.507 15.072 148.131 18.624 146.531 21.856L147.011 22.144C147.971 20.352 149.219 17.792 150.403 15.936C151.587 14.112 152.931 11.328 156.035 11.328C157.603 11.328 158.595 12.16 158.723 13.376C157.987 16.288 157.027 18.24 155.587 20.864H154.979C154.019 18.496 152.675 16.512 151.683 16.512Z" fill="#fff"/>
<path d="M162.404 3.872C162.404 1.76 163.94 0 165.764 0C167.428 0 168.484 1.248 168.484 3.136C168.484 5.728 166.308 9.568 163.716 11.552H162.756V11.424C165.188 9.76 167.396 6.24 167.524 3.776L167.236 3.744C166.916 5.312 165.924 6.304 164.644 6.304C163.3 6.304 162.404 5.344 162.404 3.872Z" fill="#fff"/>
<path d="M179.669 23.264C179.669 26.912 175.925 28.352 172.821 28.352C169.429 28.352 165.909 27.296 164.725 25.664C165.333 24.192 166.357 22.88 167.413 21.792H167.733C168.469 23.68 170.293 27.584 172.373 27.584C173.333 27.584 174.197 27.008 174.197 25.824C174.197 24.16 173.013 23.616 171.477 22.656C168.949 21.088 167.317 19.968 167.317 17.664C167.317 13.024 172.885 11.328 176.565 11.328C179.989 11.328 182.261 12.576 182.261 14.592C182.261 15.84 181.525 16.608 180.469 17.152C178.869 17.344 177.301 17.376 175.701 17.376L175.605 17.056C176.373 16.192 177.141 15.36 177.141 14.528C177.141 13.6 176.181 12.352 174.901 12.352C173.909 12.352 172.917 13.024 172.917 14.688C172.917 16.352 173.973 17.312 175.509 18.272C178.037 19.84 179.669 20.96 179.669 23.264Z" fill="#fff"/>
</svg>
