<svg width="32" height="32" viewBox="0 0 32 32" fill="none" xmlns="http://www.w3.org/2000/svg">
<g clip-path="url(#clip0_98_1920)">
<path d="M25.7619 22.0227C24.9784 22.2571 24.2093 22.6641 23.4354 23.4342L23.4344 23.4352C22.4271 24.4501 22.031 25.4584 21.856 26.4992C21.6838 27.5396 21.7689 28.6048 21.7871 29.6241C21.7889 29.7944 21.7899 29.9646 21.7861 30.1335L30.1346 21.7841C29.8696 21.7903 29.6027 21.7864 29.3329 21.7798C28.1592 21.7448 26.9338 21.673 25.7619 22.0227Z" fill="white"/>
<path d="M16.0004 0.000469208C7.16319 0.000469208 0 7.16316 0 15.9995C0 24.8368 7.16319 32 16.0004 32C17.3234 32 18.6044 31.8287 19.8346 31.5255C19.9924 31.3509 20.0929 31.1352 20.1579 30.787C20.2239 30.422 20.2297 29.9356 20.2134 29.3741C20.1867 28.25 20.0757 26.8256 20.5196 25.3161C20.8152 24.3107 21.3719 23.2775 22.3257 22.3272C22.3257 22.3272 22.3257 22.3267 22.3267 22.3262C23.5732 21.072 24.9651 20.5138 26.2459 20.3087C27.5287 20.1006 28.7102 20.2077 29.6487 20.2192C30.2734 20.2317 30.7822 20.1933 31.1123 20.0752C31.2864 20.0135 31.4117 19.936 31.5256 19.8322C31.8288 18.6035 32.0001 17.322 32.0001 15.9995C32 7.16316 24.8368 0.000469208 16.0004 0.000469208ZM12.6293 20.1527L11.5809 20.3593C11.5101 20.3727 11.4613 20.355 11.4134 20.3005L8.55219 16.957L8.50819 16.9657L9.24763 20.7262C9.25813 20.7793 9.22944 20.8214 9.17688 20.8318L8.181 21.0275C8.12837 21.038 8.08631 21.0093 8.07575 20.9562L6.93356 15.1443C6.92212 15.0907 6.95081 15.0491 7.00344 15.0386L8.0605 14.8305C8.12269 14.8181 8.18006 14.8348 8.22694 14.8898L11.0824 18.2433L11.1264 18.2347L10.3851 14.4651C10.3745 14.412 10.4032 14.3704 10.4568 14.3594L11.4517 14.1638C11.5043 14.1533 11.5464 14.181 11.5569 14.2345L12.7001 20.047C12.7106 20.1006 12.6819 20.1426 12.6293 20.1527ZM17.7922 19.1372L13.9523 19.8929C13.8987 19.903 13.8576 19.8747 13.8471 19.8217L12.703 14.0097C12.6934 13.9562 12.7212 13.914 12.7747 13.9035L16.6146 13.1483C16.6673 13.1382 16.7094 13.1665 16.7199 13.2195L16.9045 14.1618C16.916 14.2145 16.8873 14.2565 16.8347 14.267L14.2537 14.7745C14.2183 14.7812 14.204 14.8023 14.2106 14.8377L14.4451 16.0267C14.4517 16.0617 14.4727 16.076 14.5082 16.0693L16.6577 15.6464C16.7103 15.6363 16.7524 15.6651 16.7629 15.7172L16.9466 16.6508C16.9571 16.7039 16.9284 16.7456 16.8758 16.7561L14.7263 17.1788C14.6919 17.1856 14.6766 17.2066 14.6833 17.242L14.9281 18.4837C14.9348 18.5191 14.9568 18.5329 14.9913 18.5257L17.5722 18.0182C17.6248 18.0077 17.6669 18.0369 17.6774 18.0895L17.863 19.0317C17.8736 19.0851 17.8449 19.1272 17.7922 19.1372ZM24.2236 17.7807C24.2246 17.8362 24.1882 17.8802 24.1261 17.8917L23.2451 18.0648C23.1838 18.0773 23.1408 18.0486 23.113 17.9993L21.3413 14.4785L21.3241 14.4823L21.0084 18.4135C21.0018 18.4695 20.973 18.512 20.9118 18.524L20.0308 18.6976C19.9781 18.7077 19.9361 18.679 19.9074 18.6297L17.2145 13.1219C17.1954 13.0707 17.2059 13.032 17.268 13.02L18.4035 12.7967C18.4656 12.7847 18.5078 12.8124 18.5259 12.8641L20.1292 16.4547L20.1474 16.4509L20.4296 12.49C20.4362 12.4331 20.4649 12.3915 20.5262 12.379L21.2924 12.2284C21.3451 12.2183 21.3872 12.2461 21.4159 12.2963L23.2114 15.8483L23.2296 15.845L23.3176 11.9223C23.3148 11.8587 23.3444 11.8248 23.4066 11.8128L24.5334 11.5913C24.5947 11.5789 24.6196 11.6105 24.6205 11.6655L24.2236 17.7807Z" fill="white"/>
</g>
<defs>
<clipPath id="clip0_98_1920">
<rect width="32" height="32" fill="white"/>
</clipPath>
</defs>
</svg>
