<svg width="140" height="140" viewBox="0 0 140 140" fill="none" xmlns="http://www.w3.org/2000/svg">
<path d="M140.001 19.9719H25.8945V79.3075H140.001V19.9719Z" fill="#C3E825"/>
<path d="M139.998 19.9719H82.9453V79.3075H139.998V19.9719Z" fill="#A8DD5E"/>
<path d="M120.422 19.9733C120.422 30.7855 129.187 39.5508 139.999 39.5508V19.9733H120.422Z" fill="#86C37E"/>
<path d="M139.999 59.7311C129.187 59.7311 120.422 68.4964 120.422 79.3087H139.999V59.7311Z" fill="#86C37E"/>
<path d="M45.4721 19.9733C45.4721 30.7855 36.7068 39.5508 25.8945 39.5508V19.9733H45.4721Z" fill="#A8DD5E"/>
<path d="M25.8945 59.7311C36.7068 59.7311 45.4721 68.4964 45.4721 79.3087H25.8945V59.7311Z" fill="#A8DD5E"/>
<path d="M82.9453 63.2773C93.5099 63.2773 102.074 57.1716 102.074 49.6399C102.074 42.1081 93.5099 36.0024 82.9453 36.0024C72.3807 36.0024 63.8164 42.1081 63.8164 49.6399C63.8164 57.1716 72.3807 63.2773 82.9453 63.2773Z" fill="#EDEDEE"/>
<path d="M102.074 49.6407C102.074 57.1722 93.5098 63.2781 82.9453 63.2781C82.9453 56.8573 82.9453 40.5158 82.9453 36.003C93.5098 36.0033 102.074 42.1089 102.074 49.6407Z" fill="#DDDCDF"/>
<path d="M73.8533 120.028H10.8598C4.87156 120.028 0 115.156 0 109.168V75.0416C0 69.0536 4.87156 64.1818 10.8598 64.1818H73.8536C79.8416 64.1818 84.7134 69.0533 84.7134 75.0416V109.169C84.7128 115.156 79.841 120.028 73.8533 120.028Z" fill="#E3744E"/>
<path d="M73.8525 120.028H42.3555V64.1818H73.8525C79.8405 64.1818 84.7123 69.0533 84.7123 75.0416V109.169C84.712 115.156 79.8402 120.028 73.8525 120.028Z" fill="#E05323"/>
<path d="M84.7123 76.8088H0V87.7988H84.7123V76.8088Z" fill="#7F7F83"/>
<path d="M84.7115 76.8088H42.3555V87.7988H84.7115V76.8088Z" fill="#5B5B5F"/>
<path d="M23.2708 95.6022H10.207V104.733H23.2708V95.6022Z" fill="#EDEDEE"/>
<path d="M75.8868 115.111C78.4283 115.111 80.4885 113.051 80.4885 110.509C80.4885 107.968 78.4283 105.908 75.8868 105.908C73.3454 105.908 71.2852 107.968 71.2852 110.509C71.2852 113.051 73.3454 115.111 75.8868 115.111Z" fill="#E3744E"/>
<path d="M70.1993 115.111C72.7408 115.111 74.801 113.051 74.801 110.509C74.801 107.968 72.7408 105.908 70.1993 105.908C67.6579 105.908 65.5977 107.968 65.5977 110.509C65.5977 113.051 67.6579 115.111 70.1993 115.111Z" fill="#F5DC49"/>
</svg>
