<svg width="24" height="24" viewBox="0 0 24 24" fill="none" xmlns="http://www.w3.org/2000/svg">
<path d="M23 12C22.9993 14.0899 22.4033 16.1363 21.2817 17.8997C20.1602 19.6631 18.5595 21.0706 16.667 21.9572C14.7746 22.8439 12.6687 23.1732 10.5959 22.9064C8.52316 22.6396 6.56927 21.7879 4.96299 20.451L4.70699 20.707C4.5195 20.8945 4.26519 20.9999 3.99999 21C3.86854 21.0004 3.73833 20.9746 3.61699 20.924C3.43431 20.8482 3.27818 20.72 3.16836 20.5556C3.05854 20.3911 2.99994 20.1978 2.99999 20V18C2.99999 17.7348 3.10535 17.4804 3.29289 17.2929C3.48042 17.1054 3.73478 17 3.99999 17H5.99999C6.19774 17 6.39104 17.0587 6.55545 17.1686C6.71986 17.2785 6.848 17.4346 6.92367 17.6173C6.99934 17.8 7.01915 18.0011 6.98058 18.195C6.94201 18.389 6.8468 18.5671 6.70699 18.707L6.38499 19.029C7.97872 20.3013 9.95727 20.9946 11.9966 20.9954C14.0358 20.9962 16.0149 20.3043 17.6096 19.0333C19.2043 17.7622 20.3201 15.9873 20.7741 13.9992C21.2281 12.0111 20.9935 9.92773 20.1087 8.09041C19.2239 6.25309 17.7413 4.77072 15.9039 3.88615C14.0665 3.00158 11.9831 2.76725 9.99505 3.22154C8.00702 3.67583 6.2322 4.79182 4.96135 6.38668C3.69049 7.98154 2.99895 9.96072 2.99999 12C3.00011 12.6045 3.0604 13.2075 3.17999 13.8C3.23304 14.0599 3.18066 14.3302 3.03438 14.5515C2.8881 14.7728 2.65991 14.9269 2.39999 14.98C2.14008 15.033 1.86974 14.9807 1.64845 14.8344C1.42716 14.6881 1.27304 14.4599 1.21999 14.2C0.91417 12.6939 0.927337 11.1404 1.25864 9.6397C1.58995 8.13899 2.23205 6.72436 3.14354 5.487C4.05504 4.24964 5.2157 3.21701 6.55071 2.45567C7.88572 1.69433 9.36545 1.22119 10.8945 1.06674C12.4236 0.912289 13.968 1.07996 15.4283 1.55894C16.8886 2.03792 18.2323 2.81759 19.3729 3.84768C20.5134 4.87776 21.4254 6.13541 22.0502 7.53955C22.6749 8.94369 22.9984 10.4632 23 12ZM12 4.99999C11.7348 4.99999 11.4804 5.10535 11.2929 5.29289C11.1054 5.48042 11 5.73478 11 5.99999V12C11 12.2652 11.1054 12.5196 11.2929 12.7071C11.4804 12.8946 11.7348 13 12 13H17C17.2652 13 17.5196 12.8946 17.7071 12.7071C17.8946 12.5196 18 12.2652 18 12C18 11.7348 17.8946 11.4804 17.7071 11.2929C17.5196 11.1054 17.2652 11 17 11H13V5.99999C13 5.73478 12.8946 5.48042 12.7071 5.29289C12.5196 5.10535 12.2652 4.99999 12 4.99999Z" fill="#C4C4C4"/>
</svg>
