<svg width="32" height="32" viewBox="0 0 32 32" fill="none" xmlns="http://www.w3.org/2000/svg">
<g clip-path="url(#clip0_98_1916)">
<path d="M16.0013 29.3334C14.1569 29.3334 12.4235 28.9834 10.8013 28.2834C9.17908 27.5834 7.76797 26.6334 6.56797 25.4334C5.36797 24.2334 4.41797 22.8222 3.71797 21.2C3.01797 19.5778 2.66797 17.8445 2.66797 16C2.66797 14.1556 3.01797 12.4222 3.71797 10.8C4.41797 9.1778 5.36797 7.76669 6.56797 6.56669C7.76797 5.36669 9.17908 4.41669 10.8013 3.71669C12.4235 3.01669 14.1569 2.66669 16.0013 2.66669C17.4457 2.66669 18.8124 2.8778 20.1013 3.30002C21.3902 3.72224 22.5791 4.31113 23.668 5.06669L21.7346 7.03335C20.8902 6.50002 19.9902 6.08335 19.0346 5.78335C18.0791 5.48335 17.068 5.33335 16.0013 5.33335C13.0457 5.33335 10.5291 6.37224 8.4513 8.45002C6.37352 10.5278 5.33464 13.0445 5.33464 16C5.33464 18.9556 6.37352 21.4722 8.4513 23.55C10.5291 25.6278 13.0457 26.6667 16.0013 26.6667C16.7124 26.6667 17.4013 26.6 18.068 26.4667C18.7346 26.3334 19.3791 26.1445 20.0013 25.9L22.0013 27.9334C21.0902 28.3778 20.1346 28.7222 19.1346 28.9667C18.1346 29.2111 17.0902 29.3334 16.0013 29.3334ZM25.3346 26.6667V22.6667H21.3346V20H25.3346V16H28.0013V20H32.0013V22.6667H28.0013V26.6667H25.3346ZM14.1346 22.1334L8.46797 16.4667L10.3346 14.6L14.1346 18.4L27.468 5.03335L29.3346 6.90002L14.1346 22.1334Z" fill="white"/>
</g>
<defs>
<clipPath id="clip0_98_1916">
<rect width="32" height="32" fill="white"/>
</clipPath>
</defs>
</svg>
