<svg width="60" height="60" viewBox="0 0 60 60" fill="none" xmlns="http://www.w3.org/2000/svg">
<path d="M10.4933 0H10.4786C6.01121 0 2.375 4.91039 2.375 9.37781V16.7972C2.375 20.5685 4.96438 23.7369 8.45621 24.6328C8.44227 24.7277 8.44086 24.8242 8.44086 24.9231V58.022C8.44086 59.1144 9.32645 60 10.4189 60C11.5113 60 12.3969 59.1144 12.3969 58.022V24.9231C12.3969 24.8338 12.4014 24.7465 12.39 24.6602C15.9418 23.8064 18.5946 20.6111 18.5946 16.7972V9.37781C18.5948 4.91039 14.9606 0 10.4933 0Z" fill="white"/>
<path d="M39.1659 0.121994C38.0734 0.121994 37.1879 1.00758 37.1879 2.1V19.1929C37.1879 20.5187 36.1612 21.6264 34.8354 21.6264H34.4186V2.1C34.4186 1.00758 33.533 0.121994 32.4406 0.121994C31.3482 0.121994 30.4626 1.00758 30.4626 2.1V21.6264H29.9454C28.6198 21.6264 27.5615 20.5187 27.5615 19.1929V2.1C27.5615 1.00758 26.6759 0.121994 25.5835 0.121994C24.4911 0.121994 23.6055 1.00758 23.6055 2.1V19.1929C23.6055 22.7 26.4384 25.5824 29.9454 25.5824H30.4626V57.9362C30.4626 59.0286 31.3482 59.9142 32.4406 59.9142C33.533 59.9142 34.4186 59.0286 34.4186 57.9362V25.5824H34.8354C38.3425 25.5824 41.1439 22.7 41.1439 19.1929V2.1C41.1439 1.00758 40.2582 0.121994 39.1659 0.121994Z" fill="#FF7A00"/>
<path d="M52.8997 1.56457C51.8289 0.621682 50.3548 0.401018 49.0545 0.988596C47.7541 1.57617 46.9453 2.82762 46.9453 4.25461V57.9363C46.9453 59.0288 47.8309 59.9143 48.9233 59.9143C50.0157 59.9143 50.9013 59.0288 50.9013 57.9363V37.9743L56.7289 34.1521C57.2859 33.7864 57.6266 33.1649 57.6266 32.4984V12.0056C57.6267 8.01035 55.8984 4.20469 52.8997 1.56457Z" fill="white"/>
</svg>
